<svg width="18" height="18" viewBox="0 0 18 18" xmlns="http://www.w3.org/2000/svg">
	<g clip-path="url(#clip0_0_56)">
		<path d="M9.01265 4.5C9.72179 4.5 10.424 4.63968 11.0791 4.91105C11.7343 5.18243 12.3296 5.58019 12.831 6.08162C13.3325 6.58306 13.7302 7.17835 14.0016 7.83351C14.273 8.48867 14.4126 9.19086 14.4126 9.9V14.4C14.4126 14.6387 14.3178 14.8676 14.149 15.0364C13.9803 15.2052 13.7513 15.3 13.5126 15.3H4.51265C4.27395 15.3 4.04503 15.2052 3.87625 15.0364C3.70747 14.8676 3.61265 14.6387 3.61265 14.4V9.9C3.61265 8.46783 4.18157 7.09432 5.19427 6.08162C6.20697 5.06893 7.58048 4.5 9.01265 4.5ZM9.01265 13.05C9.84808 13.05 10.6493 12.7181 11.24 12.1274C11.8308 11.5366 12.1626 10.7354 12.1626 9.9C12.1626 9.06457 11.8308 8.26335 11.24 7.67261C10.6493 7.08187 9.84808 6.75 9.01265 6.75C8.17722 6.75 7.376 7.08187 6.78526 7.67261C6.19452 8.26335 5.86265 9.06457 5.86265 9.9C5.86265 10.7354 6.19452 11.5366 6.78526 12.1274C7.376 12.7181 8.17722 13.05 9.01265 13.05ZM9.01265 12.15C8.41591 12.15 7.84362 11.9129 7.42166 11.491C6.9997 11.069 6.76265 10.4967 6.76265 9.9C6.76265 9.30326 6.9997 8.73097 7.42166 8.30901C7.84362 7.88705 8.41591 7.65 9.01265 7.65C9.60939 7.65 10.1817 7.88705 10.6036 8.30901C11.0256 8.73097 11.2626 9.30326 11.2626 9.9C11.2626 10.4967 11.0256 11.069 10.6036 11.491C10.1817 11.9129 9.60939 12.15 9.01265 12.15ZM2.71265 16.2H15.3126C15.5513 16.2 15.7803 16.2948 15.949 16.4636C16.1178 16.6324 16.2126 16.8613 16.2126 17.1C16.2126 17.3387 16.1178 17.5676 15.949 17.7364C15.7803 17.9052 15.5513 18 15.3126 18H2.71265C2.47395 18 2.24503 17.9052 2.07625 17.7364C1.90747 17.5676 1.81265 17.3387 1.81265 17.1C1.81265 16.8613 1.90747 16.6324 2.07625 16.4636C2.24503 16.2948 2.47395 16.2 2.71265 16.2ZM9.01265 0C9.25134 0 9.48026 0.0948212 9.64904 0.263604C9.81783 0.432387 9.91265 0.661305 9.91265 0.9V1.8C9.91265 2.03869 9.81783 2.26761 9.64904 2.4364C9.48026 2.60518 9.25134 2.7 9.01265 2.7C8.77395 2.7 8.54504 2.60518 8.37625 2.4364C8.20747 2.26761 8.11265 2.03869 8.11265 1.8V0.9C8.11265 0.661305 8.20747 0.432387 8.37625 0.263604C8.54504 0.0948212 8.77395 0 9.01265 0ZM14.5674 1.8045C14.663 1.87405 14.7439 1.96175 14.8056 2.06258C14.8673 2.1634 14.9085 2.27539 14.9268 2.39214C14.9452 2.50889 14.9404 2.62812 14.9127 2.74302C14.8851 2.85792 14.835 2.96624 14.7654 3.0618L14.2371 3.7908C14.1677 3.88642 14.08 3.96741 13.9792 4.02915C13.8784 4.09089 13.7664 4.13218 13.6497 4.15065C13.5329 4.16912 13.4137 4.16441 13.2988 4.13679C13.1838 4.10918 13.0755 4.0592 12.9798 3.9897C12.8842 3.9202 12.8032 3.83256 12.7415 3.73176C12.6798 3.63096 12.6385 3.51899 12.62 3.40224C12.6015 3.28549 12.6062 3.16625 12.6339 3.05131C12.6615 2.93638 12.7115 2.82802 12.7809 2.7324L13.3101 2.0034C13.3797 1.90784 13.4674 1.82692 13.5682 1.76526C13.6691 1.70359 13.781 1.66239 13.8978 1.644C14.0145 1.62562 14.1338 1.63041 14.2487 1.6581C14.3636 1.68579 14.4719 1.73585 14.5674 1.8054V1.8045ZM17.9649 6.5295C18.0387 6.7565 18.0192 7.00349 17.9109 7.21616C17.8025 7.42882 17.6141 7.58973 17.3871 7.6635L16.5321 7.9425C16.305 8.01638 16.0579 7.997 15.845 7.88865C15.6322 7.78029 15.4711 7.59182 15.3972 7.3647C15.3234 7.13758 15.3427 6.89042 15.4511 6.67758C15.5595 6.46475 15.7479 6.30368 15.975 6.2298L16.8309 5.9517C17.0579 5.87796 17.3049 5.8974 17.5176 6.00576C17.7303 6.11412 17.8912 6.30251 17.9649 6.5295ZM0.0522482 6.5295C0.126017 6.30251 0.286929 6.11412 0.499592 6.00576C0.712254 5.8974 0.959249 5.87796 1.18625 5.9517L2.04215 6.2307C2.15806 6.26423 2.26605 6.32073 2.35968 6.39684C2.45332 6.47295 2.5307 6.56711 2.58721 6.67372C2.64373 6.78034 2.67823 6.89723 2.68866 7.01744C2.69909 7.13766 2.68524 7.25874 2.64794 7.3735C2.61063 7.48825 2.55063 7.59433 2.4715 7.68543C2.39237 7.77653 2.29573 7.85079 2.18733 7.90379C2.07893 7.95679 1.96097 7.98745 1.84048 7.99394C1.71999 8.00044 1.59942 7.98264 1.48595 7.9416L0.630948 7.6635C0.518473 7.62707 0.414278 7.56883 0.324318 7.49211C0.234357 7.4154 0.160393 7.32171 0.106652 7.2164C0.0529107 7.11109 0.0204453 6.99622 0.0111105 6.87836C0.00177568 6.7605 0.0157544 6.64196 0.0522482 6.5295ZM3.45785 1.8045C3.55351 1.73504 3.66193 1.6851 3.77689 1.65755C3.89186 1.63 4.01113 1.62537 4.12789 1.64392C4.24465 1.66248 4.35661 1.70385 4.45737 1.76569C4.55814 1.82752 4.64573 1.9086 4.71515 2.0043L5.24435 2.7324C5.3181 2.82772 5.37196 2.93689 5.40273 3.05342C5.43349 3.16995 5.44054 3.29148 5.42344 3.41078C5.40635 3.53009 5.36547 3.64475 5.30323 3.74796C5.24098 3.85116 5.15864 3.94082 5.06109 4.0116C4.96354 4.08238 4.85277 4.13285 4.73534 4.16001C4.61792 4.18716 4.49623 4.19046 4.37751 4.1697C4.25879 4.14894 4.14544 4.10454 4.0442 4.03915C3.94296 3.97375 3.85589 3.88869 3.78815 3.789L3.25895 3.0609C3.18944 2.96529 3.13945 2.85692 3.11182 2.74199C3.0842 2.62705 3.07949 2.5078 3.09796 2.39105C3.11643 2.2743 3.15772 2.16232 3.21947 2.06153C3.28122 1.96073 3.36222 1.87309 3.45785 1.8036V1.8045Z" />
	</g>
	<defs>
		<clipPath id="clip0_0_56">
			<rect width="18" height="18" />
		</clipPath>
	</defs>
</svg>
