<svg width="18" height="18" viewBox="0 0 18 18" xmlns="http://www.w3.org/2000/svg">
	<path d="M14.4308 6.53437C12.8664 6.01917 10.7986 5.73646 8.60965 5.73646H8.46936C9.04782 5.01109 9.64358 4.38429 10.224 3.89141C10.7332 3.45991 11.2118 3.15302 11.6077 3.00423C11.8844 2.90007 12.1112 2.87961 12.2303 2.94471C12.3591 3.01725 12.4571 3.2423 12.4975 3.56407C12.5551 4.01789 12.4975 4.63353 12.3303 5.34402L13.6794 5.63975C13.8831 4.76744 13.9484 4.01417 13.8696 3.40039C13.8024 2.86659 13.5833 2.15424 12.9202 1.78411C12.2841 1.42887 11.1426 1.33029 9.31111 2.88333C8.43477 3.62544 7.53729 4.63539 6.70131 5.809C6.13822 5.85364 5.59435 5.91688 5.07355 5.99871C4.97938 5.68811 4.90251 5.3868 4.84293 5.09851C4.71033 4.45497 4.67573 3.90071 4.74108 3.49525C4.7872 3.21254 4.87944 3.01167 4.9986 2.94471C5.19462 2.83497 5.89223 2.91309 7.12218 3.99371L8.05233 3.00237C7.38931 2.42021 6.76281 2.00916 6.18819 1.78039C5.68852 1.58138 4.95632 1.42143 4.30675 1.78411C3.67063 2.13936 3.01146 3.04886 3.48614 5.3589C3.54572 5.65277 3.62259 5.95594 3.71484 6.27026C3.39005 6.35024 3.08064 6.43766 2.78853 6.53437C0.484293 7.29323 0 8.29945 0 9.00994C0 9.74089 0.515042 10.2766 0.949368 10.5965C1.44711 10.9647 2.13704 11.2865 2.99993 11.5506L3.41888 10.2747C1.81033 9.78181 1.38562 9.23127 1.38562 9.00994C1.38562 8.87789 1.51822 8.69747 1.74884 8.51892C2.07939 8.26225 2.59443 8.01488 3.23439 7.80285C3.52266 7.70799 3.83014 7.62243 4.15301 7.54618C4.33942 8.02418 4.55658 8.51334 4.79873 9.00808C4.46049 9.69997 4.17222 10.3863 3.94161 11.0428C3.53803 12.1997 3.32663 13.2543 3.33048 14.0894C3.33432 14.8129 3.50728 15.7689 4.31251 16.219C4.59502 16.3771 4.89098 16.4348 5.17925 16.4348C5.55784 16.4348 5.91722 16.3325 6.20356 16.219C6.78202 15.9884 7.41237 15.5718 8.07732 14.984L7.14524 13.9946C5.90376 15.0901 5.20231 15.17 5.00436 15.0584C4.86599 14.9803 4.71801 14.6846 4.71417 14.082C4.71033 13.3919 4.89674 12.488 5.25227 11.4688C5.35989 11.16 5.48097 10.8457 5.61742 10.5258C5.64048 10.563 5.66162 10.6002 5.68468 10.6392C6.41688 11.8649 7.25094 13.0069 8.09846 13.9388C8.93252 14.8557 9.77042 15.5606 10.5199 15.9754C10.9446 16.2116 11.4981 16.4348 12.0535 16.4348C12.3456 16.4348 12.6397 16.3734 12.9183 16.2172C13.7236 15.7671 13.8965 14.8092 13.9004 14.0857C13.9042 13.2506 13.6928 12.196 13.2892 11.0373C13.0836 10.4458 12.828 9.82831 12.532 9.20523L11.2733 9.76879C11.55 10.3491 11.7864 10.9201 11.9766 11.4688C12.3322 12.488 12.5186 13.3919 12.5147 14.0838C12.5128 14.6864 12.3629 14.984 12.2246 15.0603C12.0862 15.1384 11.746 15.1142 11.206 14.8148C10.5872 14.4726 9.87035 13.8644 9.13623 13.0553C8.34829 12.1886 7.56804 11.1228 6.88196 9.97152C6.68978 9.64976 6.50913 9.32985 6.34001 9.00808C6.51105 8.68259 6.69362 8.35896 6.8858 8.0372C7.07606 7.71729 7.27208 7.40668 7.47387 7.10537C7.8467 7.08677 8.2253 7.07747 8.60965 7.07747C10.6506 7.07747 12.5609 7.336 13.9849 7.80471C14.6268 8.01488 15.1399 8.26225 15.4705 8.52078C15.7011 8.70119 15.8337 8.87974 15.8337 9.0118C15.8337 9.15501 15.6819 9.34845 15.4167 9.54374C15.0438 9.81715 14.4692 10.0757 13.7562 10.2914L14.1694 11.5692C15.0458 11.3051 15.7472 10.9815 16.2526 10.6113C16.6927 10.2896 17.2174 9.75019 17.2174 9.0118C17.2193 8.29945 16.735 7.29323 14.4308 6.53437ZM5.6866 7.36576C5.66162 7.40668 5.63855 7.4476 5.61357 7.48852C5.58474 7.42156 5.55784 7.3546 5.52901 7.28765C5.60204 7.27649 5.67699 7.26719 5.75194 7.25789C5.7308 7.29137 5.70966 7.32856 5.6866 7.36576Z" />
	<path d="M7.82617 9.3913C7.82617 9.80642 7.99108 10.2045 8.28461 10.4981C8.57815 10.7916 8.97627 10.9565 9.39139 10.9565C9.80651 10.9565 10.2046 10.7916 10.4982 10.4981C10.7917 10.2045 10.9566 9.80642 10.9566 9.3913C10.9566 8.97618 10.7917 8.57806 10.4982 8.28452C10.2046 7.99099 9.80651 7.82608 9.39139 7.82608C8.97627 7.82608 8.57815 7.99099 8.28461 8.28452C7.99108 8.57806 7.82617 8.97618 7.82617 9.3913Z" />
</svg>
