<svg width="14" height="14" viewBox="0 0 14 14" fill="none" xmlns="http://www.w3.org/2000/svg">
<path d="M6.16727 0.708556L2.86998 4.63952L1.37611 3.23651C1.06657 2.9458 0.555155 2.9458 0.232156 3.23651C-0.0773853 3.52722 -0.0773853 4.00754 0.232156 4.31089L2.30473 6.24477L2.34511 6.28269C2.64119 6.56077 3.12569 6.56077 3.40832 6.28269V6.27005C3.42177 6.25741 3.43523 6.25741 3.43523 6.24477C3.48907 6.19422 3.5429 6.14366 3.58327 6.08046L7.23047 1.7071C7.52656 1.42902 7.52656 0.986631 7.23047 0.708556C6.94785 0.430481 6.46335 0.430481 6.16727 0.708556ZM5.83081 7.54667H1.30882C0.810863 7.54667 0.407114 7.92586 0.407114 8.39353V12.6531C0.407114 13.1208 0.810863 13.5 1.30882 13.5H5.84427C6.34223 13.5 6.74598 13.1208 6.74598 12.6531V8.39353C6.74598 7.92586 6.34223 7.54667 5.83081 7.54667ZM5.45398 12.2992H1.68565V8.76009H5.45398V12.2992ZM13.0983 7.54667H8.56285C8.06489 7.54667 7.66114 7.92586 7.66114 8.39353V12.6531C7.66114 13.1208 8.06489 13.5 8.56285 13.5H13.0983C13.5963 13.5 14 13.1208 14 12.6531V8.39353C14 7.92586 13.5963 7.54667 13.0983 7.54667ZM12.6407 12.236H9.00697V8.82329H12.6407V12.236ZM13.0983 0.733836H8.56285C8.06489 0.733836 7.66114 1.11303 7.66114 1.5807V5.8403C7.66114 6.30797 8.06489 6.68717 8.56285 6.68717H13.0983C13.5963 6.68717 14 6.30797 14 5.8403V1.5807C14 1.11303 13.5963 0.733836 13.0983 0.733836ZM12.708 5.48639H8.93968V1.94725H12.708V5.48639Z" fill="white"/>
</svg>
