<svg t="1701914972837" class="icon" viewBox="0 0 1178 1024" version="1.1" xmlns="http://www.w3.org/2000/svg" p-id="9039" id="mx_n_1701914972838" width="200" height="200"><path d="M265.351245 595.46566c-30.140377-24.885132-72.124377-86.846792-49.789585-163.955924l-5.062037-1.700227c-58.657811-19.745811-100.525887-42.215849-105.993661-152.208905l81.533585-4.115321c3.091321 62.464 10.317283 64.879094 50.349887 78.364981 17.388679 5.545057 34.390943 12.172075 50.929509 19.842415l40.573585 19.378717-22.991698 38.834717c-34.004528 57.575849 4.521057 95.347925 12.577812 102.342038l-52.127397 63.23683z m171.877434-51.72166l-74.037132-34.584151c19.20483-41.694189 84.161208-107.616604 196.975095-75.196377 72.568755-44.495698 102.844377-46.485736 194.985056-21.735849l-21.040302 79.446943c-76.877283-20.634566-80.973283-20.054943-146.605887 22.00634l-17.060226 10.916226-18.93434-7.052075c-86.305811-32.014491-113.16166 23.80317-114.282264 26.198943z m361.433359 234.206189c-13.524528 0-27.010415-1.313811-40.264453-3.941434-93.203321-18.451321-138.665057-96.294642-140.577811-99.617812l70.578717-41.346415c0.289811 0.50234 30.043774 49.692981 86.672905 60.435321 48.64966 9.235321 105.298113-11.070792 168.322415-60.338717l50.040755 64.956377c-67.893132 53.112755-133.235925 79.852679-194.772528 79.85268z m-211.369057-440.242717a174.350491 174.350491 0 0 1-37.443623-121.991246c4.405132-54.484528 34.31366-105.356075 88.875472-151.184905l52.281962 63.178868c-37.11517 31.125736-57.266717 63.024302-59.817056 94.671698a93.724981 93.724981 0 0 0 17.833056 61.497962l-61.729811 53.827623z m265.660377 234.708528l-51.837584-63.526642c36.554868-30.256302 56.648453-62.811774 59.739773-96.739018 4.405132-48.089358-25.831849-85.784151-26.140981-86.170566l62.464-52.938868c2.144604 2.56966 52.513811 63.951698 44.978717 146.644528-5.177962 56.609811-35.183094 108.003019-89.223245 152.730566z" fill="#2dd5fc" p-id="9040"></path><path d="M357.279396 781.949585c-17.002264 0.019321-33.927245-1.680906-50.562415-5.12-70.385509-14.645132-129.371774-59.295396-175.587019-132.84951C59.218113 608.661736 11.01283 528.441962 9.756981 439.605132c-2.511698-82.151849 42.312453-158.430189 115.19034-196.047698 23.126943-72.375547 79.601509-133.660981 145.485283-155.937811a156.942491 156.942491 0 0 1 121.836679 6.491773c43.742189-47.838189 113.065057-91.232604 181.035472-93.898868a154.662642 154.662642 0 0 1 112.717283 40.70883 276.557283 276.557283 0 0 1 211.175849-7.651018 187.990943 187.990943 0 0 1 113.93449 124.077886c108.389434 65.961057 159.009811 153.947774 143.823698 250.203774a255.613585 255.613585 0 0 1-33.598792 231.771774l-65.497358-49.13268a172.321811 172.321811 0 0 0 19.069584-163.84l-4.579018-11.650415 2.627622-12.249358c14.761057-68.994415-24.595321-130.29917-117.00649-182.175396l-16.499925-9.235321-3.709585-18.68317a106.380075 106.380075 0 0 0-68.550038-82.42234c-57.305358-22.933736-129.004679-9.583094-165.192452 16.538566l-32.033812 23.107623-23.996377-31.531472c-19.011623-24.962415-41.713509-36.496906-69.516076-35.492226-56.030189 2.202566-117.914566 53.035472-141.041509 88.875472l-25.116981 38.912-35.260377-29.850566a76.8 76.8 0 0 0-78.751397-14.722416c-45.171925 15.263396-85.204528 63.043623-97.337962 116.156378l-4.636981 20.383396-19.030943 8.211321a132.965434 132.965434 0 0 0-83.987321 127.942038c0.850113 60.184151 34.951245 115.576755 82.924679 134.742943l12.964226 5.177962 7.110038 12.114113c34.970566 59.585208 78.34566 95.096755 128.869434 105.607246 88.295849 18.354717 175.741585-43.587623 176.591698-44.244529l47.992755 66.656604c-4.057358 2.956075-87.658264 63.430038-190.502642 63.430038zM987.406491 1024h-187.256755l-20.634566-48.63034-0.77283-3.207245c-6.491774-26.140981-25.329509-52.900226-34.54551-57.189434-29.116377 2.415094-111.36483 7.805585-200.240302-64.028981l-3.361811-3.033358c-120.522868-121.778717-16.229434-296.766792-11.727698-304.128l69.458113 43.181886-34.719396-21.600603 34.777358 21.504c-3.072 5.12-73.998491 125.43034-1.642264 201.206339 57.054189 45.326491 105.97434 47.664302 142.336 44.630944 59.179472-5.12 100.545208 60.280755 115.789283 108.891773h76.201057c-26.546717-96.796981-1.352453-119.093132 9.080755-128.289811 6.955472-5.757585 14.336-10.974189 22.083622-15.61117 51.238642-32.768 104.216151-75.698717 85.088604-170.660226-7.593057-24.228226-49.847547-51.528453-75.292981-48.301887l-10.104755-81.765434c66.791849-8.385208 146.567245 44.572981 164.265057 109.046339l0.618264 2.531019c33.328302 160.053132-78.751396 231.791094-120.947925 258.762868l-5.042717 3.245887c0.637585 18.68317 11.283321 61.382038 24.749887 97.78234L1046.218868 1024h-58.793057z" fill="#2dd5fc" p-id="9041"></path></svg>