<svg width="140" height="140" viewBox="0 0 140 140" fill="none" xmlns="http://www.w3.org/2000/svg">
<path d="M70 0C31.38 0 0 31.38 0 70C0 108.63 31.38 140 70 140C108.63 140 140 108.63 140 70C140 31.38 108.63 0 70 0ZM50.13 48.75C50.75 38.75 58.88 30.75 68.88 30.13C71.5625 29.9612 74.2515 30.3342 76.7867 31.2269C79.3219 32.1197 81.6514 33.5137 83.6363 35.326C85.6212 37.1383 87.2209 39.3317 88.3399 41.7755C89.4589 44.2193 90.0744 46.8634 90.1496 49.5501C90.2248 52.2369 89.7583 54.9113 88.7778 57.4138C87.7972 59.9164 86.3228 62.1959 84.4425 64.1164C82.5621 66.0369 80.3142 67.5592 77.833 68.5923C75.3517 69.6255 72.6877 70.1485 70 70.13C67.2634 70.1217 64.5576 69.5512 62.0506 68.4541C59.5435 67.3569 57.2885 65.7564 55.4255 63.7518C53.5625 61.7472 52.1312 59.3813 51.2202 56.8007C50.3093 54.2201 49.9382 51.4799 50.13 48.75ZM110 106.62C110 108.5 108.5 110 106.62 110H33.5C33.0562 110.001 32.6166 109.915 32.2065 109.745C31.7964 109.576 31.4239 109.327 31.1105 109.012C30.7972 108.698 30.5492 108.325 30.3809 107.914C30.2126 107.504 30.1274 107.064 30.13 106.62V96.62C30.13 83.37 56.75 76.62 70 76.62C83.25 76.62 109.88 83.25 109.88 96.62L110 106.62Z" fill="#EEE8F7"/>
</svg>
