<svg width="126" height="126" viewBox="0 0 126 126" fill="none" xmlns="http://www.w3.org/2000/svg">
<circle cx="62.9436" cy="66" r="47" fill="url(#paint0_linear_1345_1607)"/>
<path fill-rule="evenodd" clip-rule="evenodd" d="M68.687 26.3046L99.6519 51.9999H99.9436V95.9999H24.9436V52.0052L24.9502 51.9999L55.9153 26.3046C59.6179 23.2318 64.9841 23.2318 68.687 26.3046Z" fill="url(#paint1_linear_1345_1607)"/>
<path d="M25.0564 74.1689V52.1125L67.1128 74.1689L25.0564 96.2253V74.1689Z" fill="url(#paint2_linear_1345_1607)"/>
<path d="M99.9436 74.1689L99.9436 52.1125L57.8872 74.1689L99.9436 96.2253L99.9436 74.1689Z" fill="url(#paint3_linear_1345_1607)"/>
<path fill-rule="evenodd" clip-rule="evenodd" d="M24.9436 96.0052H99.658L68.6868 70.3046C64.9839 67.2318 59.6177 67.2318 55.9148 70.3046L24.9436 96.0052Z" fill="#CFC8FF"/>
<path d="M113.444 44L90.4436 37C90.4436 37 85.8416 43.9006 80.4436 48C73.685 53.1326 58.9436 58.5 58.9436 58.5L82.4436 69.5C96.9802 61.9067 103.401 55.9652 113.444 44Z" fill="url(#paint4_linear_1345_1607)"/>
<rect x="88.6016" y="45.2822" width="13" height="2" rx="1" transform="rotate(27.12 88.6016 45.2822)" fill="url(#paint5_linear_1345_1607)"/>
<rect x="83.2212" y="48.7539" width="13" height="2" rx="1" transform="rotate(27.12 83.2212 48.7539)" fill="url(#paint6_linear_1345_1607)"/>
<rect x="77.8408" y="52.2251" width="13" height="2" rx="1" transform="rotate(27.12 77.8408 52.2251)" fill="url(#paint7_linear_1345_1607)"/>
<rect x="71.4656" y="55.5952" width="13" height="2" rx="1" transform="rotate(27.12 71.4656 55.5952)" fill="url(#paint8_linear_1345_1607)"/>
<path d="M10.9436 41.367L25.2922 37C25.2922 37 28.1632 41.305 31.5308 43.8624C35.7471 47.0644 44.9436 50.4128 44.9436 50.4128L30.2831 57.2752C21.2144 52.5381 17.2085 48.8315 10.9436 41.367Z" fill="url(#paint9_linear_1345_1607)"/>
<rect width="8.11009" height="1.24771" rx="0.623853" transform="matrix(-0.93175 0.3631 0.3631 0.93175 27.0227 41.9907)" fill="url(#paint10_linear_1345_1607)"/>
<rect width="8.11009" height="1.24771" rx="0.623853" transform="matrix(-0.93175 0.3631 0.3631 0.93175 30.1418 44.4863)" fill="url(#paint11_linear_1345_1607)"/>
<rect width="8.11009" height="1.24771" rx="0.623853" transform="matrix(-0.93175 0.3631 0.3631 0.93175 33.2612 46.9814)" fill="url(#paint12_linear_1345_1607)"/>
<rect width="8.11009" height="1.24771" rx="0.623853" transform="matrix(-0.93175 0.3631 0.3631 0.93175 37.0042 49.4771)" fill="url(#paint13_linear_1345_1607)"/>
<path fill-rule="evenodd" clip-rule="evenodd" d="M114.906 98.0381C114.752 95.1523 114.156 93 113.444 93C112.731 93 112.135 95.1523 111.982 98.0381C109.096 98.1909 106.944 98.7876 106.944 99.5C106.944 100.212 109.096 100.809 111.982 100.962C112.135 103.848 112.731 106 113.444 106C114.156 106 114.752 103.848 114.906 100.962C117.792 100.809 119.944 100.212 119.944 99.5C119.944 98.7876 117.792 98.1909 114.906 98.0381Z" fill="#A99BFF"/>
<path fill-rule="evenodd" clip-rule="evenodd" d="M32.9055 22.0381C32.7525 19.1522 32.156 17 31.4436 17C30.7312 17 30.1348 19.1522 29.9817 22.0381C27.0958 22.1912 24.9436 22.7876 24.9436 23.5C24.9436 24.2124 27.0958 24.8088 29.9817 24.9619C30.1348 27.8478 30.7312 30 31.4436 30C32.156 30 32.7525 27.8478 32.9055 24.9619C35.7914 24.8088 37.9436 24.2124 37.9436 23.5C37.9436 22.7876 35.7914 22.1912 32.9055 22.0381Z" fill="#A99BFF"/>
<path d="M96.5374 27.0374C95.9333 26.4333 96.316 25.3988 97.1678 25.3332L100.337 25.0895C100.948 25.0424 101.458 25.5518 101.411 26.1632L101.167 29.3322C101.101 30.184 100.067 30.5667 99.4626 29.9626L98.3 28.8L96.5374 27.0374Z" fill="#A99BFF"/>
<path d="M20.1662 81.5343C21.0069 81.3825 21.6386 82.2868 21.2067 83.0239L19.6 85.7662C19.29 86.2953 18.5811 86.4233 18.1056 86.0361L15.6413 84.0288C14.9789 83.4893 15.2544 82.4212 16.0952 82.2694L17.7132 81.9773L20.1662 81.5343Z" fill="#A99BFF"/>
<circle cx="74.4436" cy="17.5" r="3" stroke="#A99BFF"/>
<circle cx="23.5" cy="103.5" r="3" stroke="#A99BFF"/>
<circle cx="98.5" cy="107.5" r="3" stroke="#A99BFF"/>
<defs>
<linearGradient id="paint0_linear_1345_1607" x1="62.9436" y1="19" x2="62.9436" y2="113" gradientUnits="userSpaceOnUse">
<stop stop-color="#F6F4FF"/>
<stop offset="1" stop-color="#E1DCFF"/>
</linearGradient>
<linearGradient id="paint1_linear_1345_1607" x1="62.4436" y1="24" x2="62.4436" y2="95.9999" gradientUnits="userSpaceOnUse">
<stop stop-color="white"/>
<stop offset="1" stop-color="#DDCCF3"/>
</linearGradient>
<linearGradient id="paint2_linear_1345_1607" x1="19.0282" y1="58.1407" x2="51.0846" y2="90.1971" gradientUnits="userSpaceOnUse">
<stop stop-color="#EBE8FF"/>
<stop offset="1" stop-color="#A99BFF"/>
</linearGradient>
<linearGradient id="paint3_linear_1345_1607" x1="105.972" y1="58.1407" x2="73.9154" y2="90.1971" gradientUnits="userSpaceOnUse">
<stop stop-color="#EBE8FF"/>
<stop offset="1" stop-color="#A99BFF"/>
</linearGradient>
<linearGradient id="paint4_linear_1345_1607" x1="86.1936" y1="37" x2="110.944" y2="55.5" gradientUnits="userSpaceOnUse">
<stop stop-color="#F8F7FF"/>
<stop offset="1" stop-color="#D2CBFF"/>
</linearGradient>
<linearGradient id="paint5_linear_1345_1607" x1="99.3421" y1="45.9263" x2="89.6855" y2="45.9331" gradientUnits="userSpaceOnUse">
<stop stop-color="#DED8FF"/>
<stop offset="1" stop-color="#D7D1FF"/>
</linearGradient>
<linearGradient id="paint6_linear_1345_1607" x1="93.9618" y1="49.398" x2="84.3052" y2="49.4047" gradientUnits="userSpaceOnUse">
<stop stop-color="#DED8FF"/>
<stop offset="1" stop-color="#D7D1FF"/>
</linearGradient>
<linearGradient id="paint7_linear_1345_1607" x1="88.5814" y1="52.8691" x2="78.9248" y2="52.8759" gradientUnits="userSpaceOnUse">
<stop stop-color="#DED8FF"/>
<stop offset="1" stop-color="#D7D1FF"/>
</linearGradient>
<linearGradient id="paint8_linear_1345_1607" x1="82.2062" y1="56.2393" x2="72.5496" y2="56.246" gradientUnits="userSpaceOnUse">
<stop stop-color="#DED8FF"/>
<stop offset="1" stop-color="#D7D1FF"/>
</linearGradient>
<linearGradient id="paint9_linear_1345_1607" x1="27.9436" y1="37" x2="12.5032" y2="48.5413" gradientUnits="userSpaceOnUse">
<stop stop-color="#F8F7FF"/>
<stop offset="1" stop-color="#D2CBFF"/>
</linearGradient>
<linearGradient id="paint10_linear_1345_1607" x1="6.70055" y1="0.401793" x2="0.676244" y2="0.406019" gradientUnits="userSpaceOnUse">
<stop stop-color="#DED8FF"/>
<stop offset="1" stop-color="#D7D1FF"/>
</linearGradient>
<linearGradient id="paint11_linear_1345_1607" x1="6.70055" y1="0.401793" x2="0.676244" y2="0.406019" gradientUnits="userSpaceOnUse">
<stop stop-color="#DED8FF"/>
<stop offset="1" stop-color="#D7D1FF"/>
</linearGradient>
<linearGradient id="paint12_linear_1345_1607" x1="6.70055" y1="0.401793" x2="0.676244" y2="0.406019" gradientUnits="userSpaceOnUse">
<stop stop-color="#DED8FF"/>
<stop offset="1" stop-color="#D7D1FF"/>
</linearGradient>
<linearGradient id="paint13_linear_1345_1607" x1="6.70055" y1="0.401793" x2="0.676244" y2="0.406019" gradientUnits="userSpaceOnUse">
<stop stop-color="#DED8FF"/>
<stop offset="1" stop-color="#D7D1FF"/>
</linearGradient>
</defs>
</svg>
