<svg width="18" height="18" viewBox="0 0 18 18" xmlns="http://www.w3.org/2000/svg">
	<path d="M15.1955 6.66351L10.5735 2.64163C10.1203 2.25059 9.54161 2.03546 8.94299 2.03546C8.34437 2.03546 7.76569 2.25059 7.31244 2.64163L2.69045 6.66351C2.43708 6.88225 2.23358 7.15279 2.09366 7.45688C1.95375 7.76096 1.88068 8.09152 1.87939 8.42624V13.9971C1.87939 15.3028 2.97486 16.3652 4.321 16.3652H13.565C14.9111 16.3652 16.0066 15.3028 16.0066 13.9971V8.42624C16.0053 8.09152 15.9322 7.76096 15.7923 7.45688C15.6524 7.15279 15.4489 6.88225 15.1955 6.66351ZM11.6229 13.4575C11.6229 13.5897 11.5705 13.7166 11.4771 13.8102C11.3837 13.9039 11.257 13.9567 11.1248 13.957H6.8751C6.74309 13.9567 6.6166 13.904 6.52325 13.8107C6.42991 13.7174 6.3773 13.5909 6.37693 13.4589V13.4047C6.3774 13.2727 6.43003 13.1463 6.52335 13.053C6.61668 12.9597 6.74312 12.907 6.8751 12.9066H11.1248C11.2568 12.907 11.3832 12.9597 11.4765 13.053C11.5699 13.1463 11.6225 13.2727 11.6229 13.4047V13.4575Z" />
</svg>
