<svg width="24" height="24" viewBox="0 0 24 24" fill="none" xmlns="http://www.w3.org/2000/svg">
<path d="M12 8C12.2652 8 12.5196 8.10536 12.7071 8.29289C12.8946 8.48043 13 8.73478 13 9C13 9.26522 12.8946 9.51957 12.7071 9.70711C12.5196 9.89464 12.2652 10 12 10C11.7348 10 11.4804 9.89464 11.2929 9.70711C11.1054 9.51957 11 9.26522 11 9C11 8.73478 11.1054 8.48043 11.2929 8.29289C11.4804 8.10536 11.7348 8 12 8ZM21 11C21 16.55 17.16 21.74 12 23C6.84 21.74 3 16.55 3 11V5L12 1L21 5V11ZM12 6C11.2915 5.99894 10.6055 6.24866 10.0635 6.70492C9.52152 7.16118 9.15849 7.79454 9.03871 8.49282C8.91894 9.1911 9.05016 9.90924 9.40913 10.52C9.76811 11.1308 10.3317 11.5949 11 11.83V18H13V16H15V14H13V11.83C13.6683 11.5949 14.2319 11.1308 14.5909 10.52C14.9498 9.90924 15.0811 9.1911 14.9613 8.49282C14.8415 7.79454 14.4785 7.16118 13.9365 6.70492C13.3945 6.24866 12.7085 5.99894 12 6Z" fill="white"/>
</svg>
