<svg width="107" height="41" viewBox="0 0 107 41" fill="none" xmlns="http://www.w3.org/2000/svg">
<path fill-rule="evenodd" clip-rule="evenodd" d="M66.417 0.11145H70.2658L67.8603 5.13809H60.3765L62.9958 1.60875H66.417V0.11145ZM52.8392 3.80122H56.9553L54.6567 6.68886H58.559L62.5147 1.39484H50.8079L47.8678 5.24504V10.0578L52.8392 3.80122ZM60.4833 7.2236H51.5028V10.539H52.5188V16.5817C52.5188 17.1164 52.9464 17.5977 53.5344 17.5977H55.8865V10.539H56.8483V14.0149V16.2609C56.8483 17.7582 55.6189 18.9346 54.1755 18.9346C52.6788 18.9346 51.5028 17.7047 51.5028 16.2609V14.0149V10.5925H47.8677V16.1004C47.8677 19.5763 50.7009 22.4105 54.1755 22.4105C57.6502 22.4105 60.4833 19.5763 60.4833 16.1004V8.72089V7.2236ZM74.9167 6.79574H62.0872V16.3143H66.5241V24.0591C66.3067 24.9979 65.4523 25.6724 64.4393 25.6724C64.2255 25.6724 64.0651 25.6189 63.9048 25.5655V27.0628H66.5241V27.1162H70.1591V16.2608H74.9167V6.79574ZM71.2282 12.8919H65.7757V10.1647H71.2817V12.8919H71.2282ZM68.5018 5.13812H76.0391V1.60877H70.052L68.5018 5.13812ZM59.3608 27.1162H47.8143V25.1911C47.8143 24.2821 48.5627 23.5334 49.4715 23.5334H60.9645V19.3089C60.9645 18.7742 61.3922 18.2929 61.9802 18.2929H64.653V22.4105C64.7064 23.0522 64.1719 23.5869 63.4769 23.5869H61.018V25.4585C61.018 26.3676 60.2696 27.1162 59.3608 27.1162ZM77.6961 24.8704L75.5579 26.1003L71.7625 19.5229C71.4952 19.0416 71.6556 18.4534 72.1367 18.186L74.4888 16.8491L78.1772 23.2126C78.4445 23.8009 78.2307 24.5495 77.6961 24.8704ZM89.1896 20.8063H92.9849V4.97768H102.072V20.5389H105.921V1.39486H89.243V15.6727C88.3343 14.7101 87.2651 13.801 86.0357 12.892C86.784 11.662 87.372 10.4321 87.8531 9.2022V6.10066H83.9509L86.9444 4.12208C86.7306 3.90818 86.4633 3.58733 86.1426 3.10606C85.4577 2.33164 84.9056 1.68994 84.4677 1.18096C84.1193 0.776157 83.8433 0.455308 83.6301 0.218414L80.6366 2.03656C80.7727 2.216 80.9052 2.39044 81.0339 2.55994C82.0179 3.8553 82.7832 4.86279 83.2559 5.61938C83.3629 5.88676 83.5232 6.04718 83.5767 6.10066H79.0864V9.68348H83.7905C82.6679 11.769 81.0642 13.9615 78.8191 16.2609C79.1933 17.5978 79.514 18.9881 79.8348 20.3785C80.5831 19.6298 81.3315 18.8277 82.0265 18.079V27.1698H85.5011V16.6887L86.0891 17.2769C86.7306 17.8117 87.1582 18.2929 87.479 18.6673L89.1896 16.6887V20.8063ZM95.8178 6.79566V21.8756C95.8178 22.6777 95.1764 23.3194 94.3745 23.3194H90.9533C89.9377 23.3194 89.0824 24.175 89.0824 25.191V27.1161H98.4906C99.1321 27.1161 99.6132 26.5814 99.6132 25.9932V23.3194V6.74218H95.8178V6.79566ZM106.883 27.2232V24.7099C106.883 24.0147 106.349 23.4799 105.707 23.5334H101.591V26.2072C101.591 26.7954 102.072 27.2232 102.607 27.2232H106.883ZM27.6226 15.4707C30.4137 19.8291 29.8691 25.6857 26.0568 29.4311C22.2446 33.1766 16.3901 33.5852 12.1014 30.725L1.89008 40.6676C5.43 39.4418 10.3995 38.0798 12.3056 38.7608C18.6366 40.9399 25.9207 39.5099 31.0263 34.5386C37.6977 28.001 38.3104 17.6499 32.7963 10.4314L27.6226 15.4707ZM10.4677 13.4958C6.65549 17.2413 6.11089 23.0979 8.90198 27.4562L3.72825 32.4956C-1.78586 25.277 -1.17318 14.9259 5.49821 8.38835C11.1485 2.87229 19.4537 1.7146 26.1931 4.98338C26.9174 5.34563 29.2351 4.35182 31.3047 3.46436C32.7366 2.85034 34.0499 2.28724 34.6345 2.25939L24.4232 12.2019C20.1344 9.34175 14.2799 9.75035 10.4677 13.4958ZM18.228 26.5709C21.0477 26.5709 23.3336 24.2842 23.3336 21.4634C23.3336 18.6427 21.0477 16.356 18.228 16.356C15.4082 16.356 13.1223 18.6427 13.1223 21.4634C13.1223 24.2842 15.4082 26.5709 18.228 26.5709ZM76.7435 32.9474C77.6567 32.9474 78.3792 33.1482 78.9111 33.5696C79.4229 33.9711 79.7441 34.5632 79.8745 35.366H78.7706C78.6703 34.8843 78.4495 34.523 78.1083 34.2822C77.7671 34.0313 77.3054 33.9108 76.7435 33.9108C76.051 33.9108 75.4991 34.1417 75.0876 34.6234C74.646 35.1251 74.4353 35.8176 74.4353 36.7007C74.4353 37.5638 74.626 38.2261 75.0274 38.6877C75.4489 39.1895 76.1112 39.4404 77.0044 39.4404C77.3556 39.4404 77.6868 39.3902 77.9979 39.3099C78.299 39.2296 78.5599 39.1092 78.8007 38.9587V37.4032H76.8237V36.4699H79.8946V39.4805C79.5233 39.7716 79.0918 39.9923 78.6 40.1529C78.0782 40.3135 77.5061 40.3938 76.8839 40.3938C75.7399 40.3938 74.8568 40.0325 74.2246 39.3099C73.6325 38.6376 73.3414 37.7645 73.3414 36.7007C73.3414 35.6269 73.6325 34.7438 74.2246 34.0513C74.8468 33.3087 75.6897 32.9474 76.7435 32.9474ZM51.3671 33.0879H52.4609V37.9451C52.4609 38.7479 52.2903 39.3501 51.9592 39.7515C51.5778 40.173 50.9757 40.3938 50.1528 40.3938C49.4403 40.3938 48.8983 40.193 48.5371 39.8017C48.1557 39.4002 47.965 38.8583 47.965 38.1558V37.915H49.0589V38.1458C49.0589 38.9988 49.4302 39.4304 50.1728 39.4304C50.5943 39.4304 50.8954 39.2999 51.0861 39.059C51.2667 38.8182 51.3671 38.4368 51.3671 37.905V33.0879ZM57.1997 33.0879H58.2835V40.2533H57.1997V33.0879ZM64.1237 33.0879H63.0198V40.2533H64.1137V34.8642H64.1538L67.8569 40.2533H68.9207V33.0879H67.8268V38.4168H67.7867L64.1237 33.0879ZM88.9858 33.4793C88.5141 33.118 87.8618 32.9474 87.0289 32.9474C86.2662 32.9474 85.6339 33.118 85.1322 33.4593C84.6003 33.8205 84.3394 34.3123 84.3394 34.9445C84.3394 35.5667 84.6103 36.0484 85.1623 36.3796C85.383 36.5 85.925 36.6907 86.8081 36.9717C87.6009 37.2125 88.0726 37.3731 88.2331 37.4534C88.6847 37.6842 88.9155 37.9953 88.9155 38.3967C88.9155 38.7178 88.755 38.9687 88.4338 39.1494C88.1127 39.33 87.6812 39.4304 87.1393 39.4304C86.5371 39.4304 86.0956 39.32 85.8045 39.0992C85.4834 38.8583 85.2827 38.4469 85.2024 37.8849H84.1186C84.1788 38.7881 84.4999 39.4504 85.092 39.8719C85.5838 40.2131 86.2662 40.3938 87.1393 40.3938C88.0424 40.3938 88.7449 40.2131 89.2467 39.8518C89.7485 39.4805 89.9994 38.9788 89.9994 38.3365C89.9994 37.6741 89.6883 37.1623 89.0761 36.791C88.7951 36.6204 88.1629 36.3896 87.1995 36.0885C86.5271 35.8878 86.1156 35.7373 85.9551 35.647C85.5938 35.4563 85.4232 35.2054 85.4232 34.8843C85.4232 34.523 85.5737 34.2621 85.8848 34.1015C86.1357 33.961 86.497 33.8908 86.9687 33.8908C87.5106 33.8908 87.912 33.9911 88.193 34.2019C88.474 34.4026 88.6546 34.7438 88.755 35.2054H89.8388C89.7686 34.4227 89.4876 33.8506 88.9858 33.4793ZM94.3293 33.0879H95.4231V36.1086H99.1764V33.0879H100.27V40.2533H99.1764V37.0419H95.4231V40.2533H94.3293V33.0879ZM106.095 33.0879H105.011V40.2533H106.095V33.0879Z" fill="url(#paint0_linear_306_227)"/>
<defs>
<linearGradient id="paint0_linear_306_227" x1="106.73" y1="19.8762" x2="1.02206e-06" y2="19.8762" gradientUnits="userSpaceOnUse">
<stop stop-color="#2918AD"/>
<stop offset="1" stop-color="#802FE8"/>
</linearGradient>
</defs>
</svg>
