<svg width="333.2459051595379" height="261.35625" viewBox="0 0 350 274.4960585673437" class="looka-1j8o68f"><defs id="SvgjsDefs1252"></defs><g id="SvgjsG1253" featurekey="ghXSps-0" transform="matrix(1.6891551922747305,0,0,1.6891551922747305,90.54139466170373,-9.272095572444373)" fill="#f2f4f7"><g xmlns="http://www.w3.org/2000/svg"><path fill-rule="evenodd" clip-rule="evenodd" d="M91.328,61.843c-0.065-0.408-0.3-0.643-0.605-0.87   c-3.865-2.872-7.729-5.747-11.586-8.632c-0.346-0.258-0.71-0.45-1.108-0.606c-11.314-4.42-22.629-8.839-33.937-13.275   c-6.89-2.703-13.747-5.496-20.936-7.349c-0.305-0.078-0.594-0.163-0.912-0.137c-3.251,0.258-6.503,0.509-9.753,0.771   c-0.249,0.02-0.514-0.008-0.79,0.166c-0.124,0.637-0.515,1.241-0.527,2.002c0.34,0,0.623-0.002,0.905,0   c3.546,0.038,7.093,0.087,10.64,0.105c0.781,0.004,1.503,0.166,2.225,0.446c17.408,6.755,34.814,13.513,52.234,20.236   c1.782,0.688,3.438,1.539,5.005,2.631c2.947,2.056,5.947,4.035,8.971,6.076C91.51,62.866,91.494,62.866,91.328,61.843z"></path><path fill-rule="evenodd" clip-rule="evenodd" d="M89.737,64.521c-2.25-1.363-4.5-2.727-6.758-4.078   c-0.871-0.522-1.696-1.129-2.654-1.497C61.497,51.709,42.667,44.474,23.84,37.23c-0.431-0.166-0.863-0.256-1.317-0.302   c-2.624-0.261-5.247-0.53-7.87-0.794c-1.379-0.139-2.759-0.271-4.161-0.41c-0.218,0.666-0.536,1.256-0.558,1.957   c3.109,0.598,6.168,1.167,9.218,1.78c1.385,0.279,2.811,0.397,4.141,0.904c17.923,6.838,35.844,13.682,53.764,20.531   c1.794,0.686,3.639,1.255,5.359,2.11c2,0.994,3.949,2.087,5.926,3.127c0.218,0.115,0.411,0.312,0.747,0.271   c0.352-0.497,0.723-1.021,1.072-1.515C90.054,64.654,89.877,64.605,89.737,64.521z"></path><path fill-rule="evenodd" clip-rule="evenodd" d="M29.206,45.674c-2.457-0.93-4.891-1.933-7.385-2.747   c-2.711-0.885-5.48-1.59-8.225-2.37c-1.294-0.367-2.59-0.726-3.955-1.108c0,0.709,0,1.327,0,2.075   c25.541,9.607,51.075,19.211,76.65,28.831c0.513-0.727,0.991-1.404,1.513-2.146c-1.816-0.805-3.512-1.651-5.274-2.322   C64.761,59.133,46.982,52.405,29.206,45.674z"></path><path fill-rule="evenodd" clip-rule="evenodd" d="M12.992,29.723c2.236-0.365,4.47-0.745,6.707-1.103   c1.025-0.165,2.021-0.374,3.094-0.044c3.404,1.045,6.837,1.994,10.258,2.988c2.388,0.693,4.833,1.216,7.149,2.123   c12.232,4.791,24.448,9.625,36.67,14.44c0.345,0.136,0.672,0.283,0.964,0.521c3.735,3.046,7.47,6.092,11.217,9.123   c0.562,0.454,1.071,0.988,1.769,1.336c0.081-0.518-0.147-0.945-0.147-1.396c0-0.524-0.259-0.882-0.647-1.222   c-4.425-3.859-8.841-7.729-13.25-11.608c-0.349-0.306-0.724-0.521-1.15-0.69c-7.722-3.061-15.44-6.13-23.16-9.194   c-1.943-0.771-3.847-1.688-5.847-2.255c-8.404-2.383-16.838-4.656-25.259-6.979c-0.399-0.11-0.768-0.108-1.165-0.004   c-1.067,0.28-2.143,0.526-3.213,0.794c-1.284,0.322-2.566,0.655-3.847,0.982c-0.238,0.747-0.459,1.44-0.675,2.118   C12.656,29.803,12.832,29.75,12.992,29.723z"></path><path fill-rule="evenodd" clip-rule="evenodd" d="M27.979,51.37c-2.671-0.999-5.394-1.87-7.98-3.082   c-3.275-1.535-6.533-3.107-9.803-4.652c-0.208-0.098-0.405-0.332-0.719-0.161c0,0.61,0,1.231,0,1.885   c0.101,0.067,0.211,0.151,0.331,0.219c3.434,1.973,6.866,3.947,10.304,5.91c0.316,0.181,0.664,0.31,1.007,0.438   c9.535,3.536,19.071,7.069,28.607,10.602c10.648,3.944,21.297,7.887,31.99,11.846c0.892-0.593,1.798-1.195,2.827-1.88   c-0.401-0.154-0.653-0.254-0.907-0.349C65.082,65.223,46.527,58.307,27.979,51.37z"></path><path fill-rule="evenodd" clip-rule="evenodd" d="M78.614,75.919c-2.784-1.021-5.568-2.044-8.352-3.067   C53.745,66.779,37.229,60.707,20.71,54.64c-0.509-0.187-0.979-0.424-1.428-0.727c-3.05-2.059-6.107-4.106-9.164-6.155   c-0.227-0.152-0.429-0.356-0.78-0.42c0,0.676,0,1.316,0,2.048c3.243,2.512,6.49,5.026,9.737,7.542   c0.272,0.211,0.581,0.336,0.903,0.454C35.316,62.977,50.651,68.58,65.987,74.18c3.446,1.258,6.895,2.511,10.349,3.768   c0.88-0.615,1.804-1.127,2.603-1.795C78.836,75.97,78.719,75.958,78.614,75.919z"></path><path fill-rule="evenodd" clip-rule="evenodd" d="M20.736,23.517c9.567,2.537,19.139,5.056,28.703,7.6   c1.939,0.516,3.923,0.885,5.793,1.629c6.357,2.526,12.704,5.076,19.058,7.609c0.508,0.204,0.949,0.476,1.35,0.854   c4.603,4.344,9.214,8.68,13.828,13.012c0.198,0.187,0.354,0.446,0.724,0.524c-0.138-1.081-0.22-2.043-1.098-2.904   c-4.62-4.532-9.185-9.122-13.723-13.735c-1.017-1.032-2.116-1.803-3.479-2.314c-4.757-1.783-9.37-3.901-14.353-5.119   c-12.611-3.08-25.172-6.359-37.755-9.554c-0.294-0.075-0.592-0.168-0.912-0.031c-1.401,0.598-2.808,1.182-4.208,1.769   c-0.263,0.807-0.512,1.576-0.809,2.489c1.918-0.634,3.67-1.188,5.402-1.799C19.772,23.367,20.228,23.382,20.736,23.517z"></path><path fill-rule="evenodd" clip-rule="evenodd" d="M19.486,59.956c-0.382-0.138-0.708-0.321-1.011-0.589   c-2.81-2.473-5.627-4.938-8.446-7.4c-0.242-0.211-0.47-0.457-0.862-0.608c0,0.731,0,1.376,0,2.082   c2.832,2.775,5.713,5.591,8.579,8.422c0.434,0.429,0.91,0.724,1.486,0.931c14.939,5.364,29.874,10.741,44.811,16.115   c2.336,0.84,4.675,1.674,7.04,2.52c0.86-0.569,1.705-1.128,2.705-1.787c-1.158-0.425-2.156-0.794-3.155-1.157   C53.584,72.305,36.537,66.127,19.486,59.956z"></path><path fill-rule="evenodd" clip-rule="evenodd" d="M19.002,19.112c2.963,0.74,5.936,1.443,8.903,2.168   c12.007,2.932,24.016,5.854,36.018,8.811c2.684,0.661,5.434,1.103,7.979,2.27c0.448,0.206,0.822,0.458,1.158,0.816   c4.257,4.528,8.521,9.05,12.784,13.571c1.184,1.254,2.37,2.505,3.555,3.757c-0.046-0.929,0.059-1.835-0.623-2.593   c-5.316-5.904-10.61-11.828-15.9-17.754c-0.264-0.295-0.563-0.454-0.929-0.539c-6.804-1.594-13.605-3.187-20.408-4.784   c-10.795-2.534-21.593-5.058-32.38-7.627c-1.014-0.242-1.869-0.223-2.678,0.441c-0.043,0.035-0.087,0.071-0.172,0.142   c-0.257,0.809-0.528,1.659-0.849,2.668c0.936-0.465,1.719-0.843,2.489-1.245C18.298,19.032,18.612,19.014,19.002,19.112z"></path><path fill-rule="evenodd" clip-rule="evenodd" d="M67.779,82.776C51.37,76.908,34.957,71.05,18.543,65.195   c-0.411-0.146-0.75-0.354-1.046-0.678c-2.395-2.616-4.8-5.221-7.203-7.829c-0.375-0.406-0.75-0.813-1.27-1.376   c0,0.887,0,1.553,0,2.3c2.635,3.149,5.332,6.362,8.01,9.59c0.314,0.378,0.712,0.533,1.139,0.685   c13.524,4.793,27.049,9.586,40.573,14.38c2.393,0.849,4.785,1.701,7.215,2.563c0.847-0.562,1.683-1.118,2.523-1.676   C68.293,82.852,68.005,82.857,67.779,82.776z"></path><path fill-rule="evenodd" clip-rule="evenodd" d="M17.64,70.274c-0.469-0.166-0.837-0.414-1.142-0.818   c-1.553-2.06-3.126-4.104-4.695-6.15c-0.926-1.207-1.857-2.41-2.786-3.615c-0.048,0.013-0.097,0.024-0.146,0.037   c0,0.667,0,1.334,0,2.131c2.298,3.262,4.686,6.637,7.054,10.027c0.341,0.488,0.75,0.776,1.316,0.974   c12.434,4.337,24.861,8.693,37.291,13.044c2.154,0.755,4.313,1.496,6.453,2.237c0.839-0.558,1.633-1.087,2.556-1.701   c-0.373-0.139-0.584-0.22-0.797-0.295C47.709,80.853,32.676,75.561,17.64,70.274z"></path><path fill-rule="evenodd" clip-rule="evenodd" d="M43.208,21.058c9.712,2.196,19.422,4.403,29.136,6.589   c0.416,0.093,0.705,0.264,0.978,0.583c4.925,5.789,9.859,11.569,14.795,17.35c0.222,0.26,0.416,0.559,0.762,0.737   c-0.052-1.182-0.361-2.146-1.119-3.062c-4.433-5.348-8.824-10.729-13.165-16.151c-0.812-1.015-1.663-1.704-2.977-1.794   c-0.446-0.031-0.881-0.201-1.323-0.296c-8.212-1.781-16.425-3.556-24.636-5.343c-8.21-1.788-16.417-3.59-24.629-5.373   c-0.264-0.057-0.531-0.197-0.827-0.092c-0.874,0.31-1.751,0.608-2.779,0.963c0.343,0.114,0.519,0.189,0.702,0.23   C26.486,17.288,34.849,19.167,43.208,21.058z"></path><path fill-rule="evenodd" clip-rule="evenodd" d="M23.34,13.343c4.653,0.978,9.308,1.95,13.961,2.926   c11.882,2.493,23.764,4.994,35.651,7.462c0.645,0.134,1.049,0.426,1.435,0.92c4.477,5.747,8.971,11.481,13.462,17.218   c0.099,0.126,0.158,0.318,0.433,0.266c-0.229-0.769-0.086-1.598-0.632-2.319c-4.362-5.761-8.7-11.541-13.04-17.318   c-0.25-0.333-0.533-0.516-0.964-0.602c-3.526-0.696-7.045-1.434-10.568-2.146c-12.263-2.479-24.528-4.952-36.792-7.43   c-0.194-0.04-0.379-0.121-0.581-0.049c-0.834,0.298-1.669,0.595-2.535,0.903C23.266,13.273,23.298,13.334,23.34,13.343z"></path><path fill-rule="evenodd" clip-rule="evenodd" d="M16.89,75.22c-0.614-0.212-1.049-0.534-1.41-1.098   c-1.984-3.1-4.012-6.171-6.031-9.248c-0.198-0.302-0.341-0.648-0.772-0.97c0.019,0.853-0.297,1.627,0.036,2.235   c0.76,1.386,1.495,2.812,2.501,4.035c1.369,1.664,2.847,3.238,4.272,4.856c0.266,0.303,0.569,0.539,0.924,0.732   c2.981,1.62,5.957,3.252,8.932,4.883c0.398,0.218,0.81,0.397,1.24,0.546c7.827,2.698,15.652,5.405,23.478,8.107   c2.025,0.699,4.051,1.392,6.066,2.083c0.791-0.596,1.641-1.022,2.394-1.682c-0.156-0.075-0.227-0.118-0.303-0.144   C44.443,84.774,30.668,79.991,16.89,75.22z"></path><path fill-rule="evenodd" clip-rule="evenodd" d="M87.462,38.137c0.066-0.028,0.134-0.056,0.201-0.084   c-0.209-0.743-0.124-1.53-0.622-2.236c-3.904-5.526-7.785-11.069-11.66-16.617c-0.284-0.405-0.619-0.591-1.099-0.68   c-4.092-0.754-8.179-1.533-12.267-2.302c-4.673-0.879-9.347-1.754-14.019-2.634c-5.256-0.99-10.514-1.978-15.768-2.977   c-1.143-0.217-2.548,0.07-3.64,0.815c15.381,3.002,30.728,5.999,45.997,8.98C78.92,26.373,83.19,32.255,87.462,38.137z"></path><path fill-rule="evenodd" clip-rule="evenodd" d="M86.933,34.299c-0.021-1.345-0.588-2.471-1.256-3.501   c-3.201-4.942-6.465-9.843-9.694-14.767c-0.226-0.344-0.506-0.492-0.891-0.559c-5.302-0.917-10.604-1.832-15.902-2.765   c-7.279-1.28-14.562-2.543-21.83-3.89c-1.373-0.255-2.45,0.274-3.61,0.812c13.836,2.518,27.671,5.035,41.549,7.56   C79.168,22.881,83.051,28.59,86.933,34.299z"></path><path fill-rule="evenodd" clip-rule="evenodd" d="M82.534,24.493c0.061-0.038,0.12-0.075,0.181-0.113   c-1.476-4.22-4.093-7.814-6.41-11.618c-4.295-0.698-8.599-1.39-12.9-2.098c-7.097-1.168-14.197-2.319-21.283-3.546   c-1.306-0.226-2.338,0.261-3.44,0.797c12.434,2.112,24.869,4.225,37.275,6.333C78.166,17.69,80.351,21.092,82.534,24.493z"></path><path fill-rule="evenodd" clip-rule="evenodd" d="M76.639,11.108c-0.064-0.02-0.142-0.051-0.223-0.066   C71.225,10.03,66.032,9.019,60.84,8.011c-4.5-0.874-9.005-1.714-13.535-2.425c-1.409-0.221-2.679-0.089-4.054,0.661   C54.494,8.033,65.61,9.8,76.733,11.567C76.786,11.425,76.78,11.265,76.639,11.108z"></path><path fill-rule="evenodd" clip-rule="evenodd" d="M53.289,92.726c-4.462-1.532-8.927-3.056-13.386-4.596   c-0.309-0.106-0.601-0.139-1.029-0.089c3.508,1.916,6.904,3.764,10.291,5.626c0.7,0.386,1.438,0.641,2.225,0.845   c0.771-0.518,1.534-1.029,2.291-1.536C53.57,92.754,53.411,92.768,53.289,92.726z"></path></g></g><g id="SvgjsG1254" featurekey="anH1Ye-0" transform="matrix(4.1041269041500215,0,0,4.1041269041500215,-4.7607865825739575,146.52439692634218)" fill="#f2f4f7"><path d="M4 5.720000000000001 l0 14.28 l-2.84 0 l0 -14.28 l2.84 0 z M11.26 9.38 c1.6533 0 2.96 0.50334 3.92 1.51 s1.44 2.3234 1.44 3.95 c0 1.64 -0.49 2.9566 -1.47 3.95 s-2.2766 1.49 -3.89 1.49 c-1.64 0 -2.94 -0.50334 -3.9 -1.51 s-1.44 -2.3166 -1.44 -3.93 c0 -1.6667 0.49 -2.9934 1.47 -3.98 s2.27 -1.48 3.87 -1.48 z M8.76 14.84 c0 1.0533 0.21334 1.8666 0.64 2.44 s1.0467 0.86 1.86 0.86 c0.84 0 1.47 -0.29334 1.89 -0.88 s0.63 -1.3933 0.63 -2.42 c0 -1.0667 -0.21666 -1.8867 -0.65 -2.46 s-1.0633 -0.86 -1.89 -0.86 c-0.8 0 -1.4133 0.28666 -1.84 0.86 s-0.64 1.3933 -0.64 2.46 z M22.580000000000002 9.38 c1.4267 0 2.4534 0.55332 3.08 1.66 l0.04 0 l0 -1.38 l2.7 0 l0 9.7 c0 1.4933 -0.46334 2.6266 -1.39 3.4 s-2.2434 1.16 -3.95 1.16 c-1.3067 0 -2.3834 -0.31334 -3.23 -0.94 s-1.2967 -1.42 -1.35 -2.38 l2.82 0 c0.22666 0.94666 0.93332 1.42 2.12 1.42 c0.73334 0 1.2967 -0.21666 1.69 -0.65 s0.59 -1.05 0.59 -1.85 l0 -1.42 l-0.04 0 c-0.28 0.50666 -0.69 0.9 -1.23 1.18 s-1.1633 0.42 -1.87 0.42 c-1.3867 0 -2.47 -0.45334 -3.25 -1.36 s-1.17 -2.1866 -1.17 -3.84 c0 -1.4667 0.41 -2.6866 1.23 -3.66 s1.89 -1.46 3.21 -1.46 z M20.980000000000004 14.46 c0 0.97334 0.20336 1.7333 0.61002 2.28 s0.97 0.82 1.69 0.82 c0.73334 0 1.32 -0.26334 1.76 -0.79 s0.66 -1.2233 0.66 -2.09 c0 -1.04 -0.21 -1.8267 -0.63 -2.36 s-1.0233 -0.8 -1.81 -0.8 c-0.73334 0 -1.2967 0.27666 -1.69 0.83 s-0.59 1.2567 -0.59 2.11 z M33.6 5.720000000000001 l0 2.34 l-2.84 0 l0 -2.34 l2.84 0 z M33.6 9.66 l0 10.34 l-2.84 0 l0 -10.34 l2.84 0 z M40.800000000000004 9.38 c1.4 0 2.54 0.35664 3.42 1.07 s1.36 1.6633 1.44 2.85 l-2.78 0 c-0.18666 -1.1867 -0.88666 -1.78 -2.1 -1.78 c-0.74666 0 -1.3367 0.30666 -1.77 0.92 s-0.65 1.4267 -0.65 2.44 c0 0.97334 0.20666 1.76 0.62 2.36 s0.99334 0.9 1.74 0.9 c1.2933 0 2.0466 -0.7 2.26 -2.1 l2.74 0 c-0.18666 1.3733 -0.71666 2.4234 -1.59 3.15 s-2.0034 1.09 -3.39 1.09 c-1.5333 0 -2.7866 -0.49 -3.76 -1.47 s-1.46 -2.2566 -1.46 -3.83 c0 -1.7067 0.48 -3.0666 1.44 -4.08 s2.24 -1.52 3.84 -1.52 z M51.400000000000006 5.720000000000001 c0.24 0 0.74 0.02668 1.5 0.08002 l0 2.12 c-0.37334 -0.04 -0.71334 -0.06 -1.02 -0.06 c-0.41334 0 -0.7 0.09 -0.86 0.27 s-0.24 0.49 -0.24 0.93 l0 0.6 l1.96 0 l0 1.9 l-1.96 0 l0 8.44 l-2.84 0 l0 -8.44 l-1.7 0 l0 -1.9 l1.7 0 l0 -0.76 c0 -1.0133 0.30334 -1.7967 0.91 -2.35 s1.4567 -0.83 2.55 -0.83 z M56.900000000000006 5.720000000000001 l0 14.28 l-2.84 0 l0 -14.28 l2.84 0 z M64.16 9.38 c1.6533 0 2.96 0.50334 3.92 1.51 s1.44 2.3234 1.44 3.95 c0 1.64 -0.49 2.9566 -1.47 3.95 s-2.2766 1.49 -3.89 1.49 c-1.64 0 -2.94 -0.50334 -3.9 -1.51 s-1.44 -2.3166 -1.44 -3.93 c0 -1.6667 0.49 -2.9934 1.47 -3.98 s2.27 -1.48 3.87 -1.48 z M61.660000000000004 14.84 c0 1.0533 0.21334 1.8666 0.64 2.44 s1.0467 0.86 1.86 0.86 c0.84 0 1.47 -0.29334 1.89 -0.88 s0.63 -1.3933 0.63 -2.42 c0 -1.0667 -0.21666 -1.8867 -0.65 -2.46 s-1.0633 -0.86 -1.89 -0.86 c-0.8 0 -1.4133 0.28666 -1.84 0.86 s-0.64 1.3933 -0.64 2.46 z M73.4 9.66 l1.9 7.02 l0.04 0 l1.72 -7.02 l2.76 0 l1.76 7 l0.04 0 l1.9 -7 l2.92 0 l-3.26 10.34 l-2.92 0 l-1.84 -6.94 l-0.04 0 l-1.76 6.94 l-2.94 0 l-3.28 -10.34 l3 0 z"></path></g><g id="SvgjsG1255" featurekey="XxVAgm-0" transform="matrix(1.3633607207904395,0,0,1.3633607207904395,120.45465493156256,246.81983697545945)" fill="#f2f4f7"><path d="M12.46 6 l2.34 0 l-6.24 14 l-1.92 0 l-6.24 -14 l2.34 0 l4.86 11.22 z M34.936 6 l2.2 0 l0 8.92 c0 3.42 -2.34 5.38 -5.22 5.38 s-5.22 -1.96 -5.22 -5.38 l0 -8.92 l2.2 0 l0 8.92 c0 2.38 1.46 3.3 3.02 3.3 s3.02 -0.92 3.02 -3.3 l0 -8.92 z M52.032000000000004 17.96 l6.34 0 l0 2.04 l-6.74 0 l-1.8 0 l0 -14 l2.2 0 l6.16 0 l0 2.04 l-6.16 0 l0 3.92 l4.74 0 l0 2 l-4.74 0 l0 4 z M72.06800000000001 16.2 c0.62 1.34 1.74 2.1 3.1 2.1 c1.22 0 2.9 -0.68 2.9 -2.8 c0 -2.06 -1.84 -3.22 -4.48 -2.62 l3.06 -4.98 l-5.64 0 l0 -1.9 l8.82 0 l-3.36 5.34 c2.02 0.16 3.8 1.78 3.8 4.16 c0 2.96 -2.32 4.7 -5.12 4.7 c-2.34 0 -4.06 -1.28 -4.78 -3.02 z"></path></g></svg>