<svg width="15" height="15" viewBox="0 0 15 15" xmlns="http://www.w3.org/2000/svg">
	<path d="M13.1886 0.710022H1.17031C0.859924 0.710022 0.562251 0.833563 0.342776 1.05347C0.1233 1.27337 0 1.57162 0 1.88262V10.4466C0 10.7576 0.1233 11.0558 0.342776 11.2757C0.562251 11.4956 0.859924 11.6192 1.17031 11.6192H13.1886C13.3423 11.6192 13.4944 11.5888 13.6364 11.5299C13.7784 11.471 13.9074 11.3846 14.0161 11.2757C14.1248 11.1668 14.211 11.0376 14.2698 10.8953C14.3286 10.753 14.3589 10.6006 14.3589 10.4466V1.88262C14.3589 1.72863 14.3286 1.57615 14.2698 1.43388C14.211 1.29162 14.1248 1.16235 14.0161 1.05347C13.9074 0.944581 13.7784 0.858209 13.6364 0.79928C13.4944 0.740352 13.3423 0.710022 13.1886 0.710022ZM7.40266 9.97243C5.42017 9.97243 3.81294 8.387 3.81294 6.43019C3.81294 4.47338 5.42017 2.88795 7.40266 2.88795C9.38515 2.88795 10.9924 4.47385 10.9924 6.43019C10.9924 8.38652 9.38531 9.97243 7.40266 9.97243Z" />
	<path d="M6.33528 4.28323C6.54785 4.2832 6.75565 4.34633 6.9324 4.46463C7.10916 4.58293 7.24693 4.7511 7.3283 4.94786C7.40967 5.14461 7.43097 5.36113 7.38952 5.57002C7.34807 5.77891 7.24573 5.9708 7.09543 6.12141C6.94514 6.27202 6.75364 6.37459 6.54516 6.41615C6.33669 6.45771 6.12059 6.4364 5.9242 6.3549C5.72781 6.2734 5.55996 6.13539 5.44186 5.9583C5.32376 5.78122 5.26073 5.57302 5.26073 5.36004C5.26071 5.21864 5.28848 5.07862 5.34248 4.94798C5.39647 4.81733 5.47562 4.69863 5.5754 4.59863C5.67518 4.49864 5.79365 4.41932 5.92403 4.3652C6.05441 4.31109 6.19416 4.28323 6.33528 4.28323ZM2.07717 13.2287H12.1759C12.4435 13.2287 12.6605 13.4236 12.6605 13.664V13.9054C12.6605 14.1458 12.4435 14.3407 12.1759 14.3407H2.07717C1.80956 14.3407 1.59253 14.1458 1.59253 13.9054V13.6637C1.59253 13.4233 1.80941 13.2287 2.07717 13.2287Z" />
</svg>
