<svg width="18" height="18" viewBox="0 0 18 18" xmlns="http://www.w3.org/2000/svg">
	<path d="M2.00593 6.28389C2.00593 5.26929 2.01828 4.25374 2.00023 3.23914C1.99263 2.79644 2.17123 2.56369 2.59873 2.45824C4.52153 1.98514 6.44053 1.49399 8.36333 1.02279C8.53813 0.980045 8.74428 1.00284 8.92383 1.04654C10.7763 1.49874 12.6269 1.95949 14.4775 2.42024C15.1235 2.58174 15.2062 2.69099 15.2062 3.36169C15.2071 5.18569 15.21 7.00874 15.2052 8.83274C15.1995 10.8724 14.3892 12.5168 12.8131 13.8155C11.6389 14.7835 10.4324 15.6889 8.98273 16.2C8.75853 16.2788 8.45548 16.2874 8.23793 16.2028C6.28093 15.4476 4.62698 14.2449 3.27418 12.6536C2.44958 11.6837 2.07053 10.5038 2.02018 9.23934C1.98123 8.25514 2.01258 7.26904 2.01258 6.28389H2.00593ZM8.61888 3.26954C8.58278 3.26289 8.54763 3.25529 8.51153 3.24864C7.59098 4.93679 6.66093 6.62019 5.75558 8.31594C5.48768 8.81849 5.75653 9.21464 6.33793 9.22794C6.80818 9.23839 7.27843 9.23079 7.74868 9.23079H8.61888V12.9633C9.58788 11.335 10.4818 9.69914 11.372 8.06229C11.752 7.36214 11.5145 6.97074 10.7127 6.96884C10.0277 6.96694 9.34278 6.96884 8.61888 6.96884V3.26954Z" />
</svg>
