<svg width="15" height="13" viewBox="0 0 15 13" xmlns="http://www.w3.org/2000/svg">
	<path d="M9.43851 12.5735C9.17863 12.3651 9.15225 12.0525 9.15225 12.0525L9.05417 11.3782H5.94583L5.84775 12.0518C5.84775 12.0518 5.82137 12.3606 5.56149 12.5728C5.30143 12.7812 5.09802 12.9599 5.30143 12.9859C5.4974 13.0157 7.36244 12.9896 7.50195 12.9859C7.64145 12.9896 9.50242 13.0157 9.70229 12.9859C9.90216 12.9562 9.69857 12.7775 9.43851 12.5728V12.5735ZM14.397 0H0.599079C0.267497 0 0 0.290224 0 0.651255V10.0767C0 10.4339 0.267497 10.728 0.599079 10.728H14.4009C14.7325 10.728 15 10.4377 15 10.0767V0.65108C15 0.29372 14.7286 0 14.397 0ZM2.93892 3.05871C2.9389 3.01717 2.94717 2.97604 2.96325 2.93765C2.97934 2.89927 3.00293 2.8644 3.03267 2.83502C3.06241 2.80565 3.09773 2.78235 3.13659 2.76647C3.17546 2.75058 3.21711 2.74242 3.25918 2.74244H9.04284C9.0849 2.74242 9.12656 2.75058 9.16542 2.76647C9.20429 2.78235 9.2396 2.80565 9.26935 2.83502C9.29909 2.8644 9.32268 2.89927 9.33876 2.93765C9.35485 2.97604 9.36312 3.01717 9.36309 3.05871V3.76207C9.36312 3.80361 9.35485 3.84475 9.33876 3.88313C9.32268 3.92151 9.29909 3.95639 9.26935 3.98576C9.2396 4.01513 9.20429 4.03843 9.16542 4.05431C9.12656 4.0702 9.0849 4.07836 9.04284 4.07834H3.25918C3.21711 4.07836 3.17546 4.0702 3.13659 4.05431C3.09773 4.03843 3.06241 4.01513 3.03267 3.98576C3.00293 3.95639 2.97934 3.92151 2.96325 3.88313C2.94717 3.84475 2.9389 3.80361 2.93892 3.76207V3.05871ZM3.9751 7.44581H3.25918C3.21713 7.44583 3.17549 7.43767 3.13663 7.4218C3.09778 7.40592 3.06247 7.38264 3.03273 7.35329C3.00299 7.32393 2.9794 7.28908 2.9633 7.25072C2.94721 7.21236 2.93892 7.17124 2.93892 7.12971V6.42636C2.9389 6.38482 2.94717 6.34368 2.96325 6.3053C2.97934 6.26691 3.00293 6.23204 3.03267 6.20267C3.06241 6.17329 3.09773 6.15 3.13659 6.13411C3.17546 6.11823 3.21711 6.11006 3.25918 6.11008H3.97138C4.01344 6.11006 4.0551 6.11823 4.09396 6.13411C4.13283 6.15 4.16814 6.17329 4.19788 6.20267C4.22763 6.23204 4.25122 6.26691 4.2673 6.3053C4.28339 6.34368 4.29165 6.38482 4.29163 6.42636V7.12971H4.2957C4.29573 7.17127 4.28745 7.21243 4.27134 7.25083C4.25523 7.28922 4.2316 7.3241 4.20182 7.35346C4.17204 7.38283 4.13668 7.4061 4.09777 7.42195C4.05887 7.43779 4.01718 7.4459 3.9751 7.44581ZM11.7369 7.44581H5.95326C5.91121 7.44586 5.86956 7.43771 5.83069 7.42185C5.79183 7.40598 5.75651 7.3827 5.72677 7.35334C5.69702 7.32398 5.67343 7.28912 5.65734 7.25074C5.64126 7.21237 5.63299 7.17124 5.63301 7.12971V6.42636C5.63299 6.38482 5.64125 6.34368 5.65734 6.3053C5.67343 6.26691 5.69702 6.23204 5.72676 6.20267C5.7565 6.17329 5.79181 6.15 5.83068 6.13411C5.86954 6.11823 5.9112 6.11006 5.95326 6.11008H11.7332C11.7753 6.11006 11.8169 6.11823 11.8558 6.13411C11.8947 6.15 11.93 6.17329 11.9597 6.20267C11.9895 6.23204 12.013 6.26691 12.0291 6.3053C12.0452 6.34368 12.0535 6.38482 12.0535 6.42636V7.12971H12.0572C12.0572 7.17124 12.0489 7.21237 12.0328 7.25074C12.0168 7.28912 11.9932 7.32398 11.9634 7.35334C11.9337 7.3827 11.8984 7.40598 11.8595 7.42185C11.8206 7.43771 11.779 7.44586 11.7369 7.44581ZM12.0572 3.76574C12.0572 3.80729 12.049 3.84843 12.0329 3.88683C12.0168 3.92522 11.9932 3.9601 11.9635 3.98948C11.9337 4.01886 11.8984 4.04215 11.8595 4.05803C11.8207 4.07391 11.779 4.08206 11.7369 4.08201H11.0249C10.9828 4.08208 10.9411 4.07395 10.9022 4.05809C10.8633 4.04222 10.8279 4.01893 10.7982 3.98955C10.7684 3.96018 10.7448 3.92529 10.7287 3.88688C10.7126 3.84847 10.7043 3.80731 10.7043 3.76574V3.06238C10.7043 3.02084 10.7125 2.97971 10.7286 2.94132C10.7447 2.90294 10.7683 2.86807 10.798 2.83869C10.8278 2.80932 10.8631 2.78602 10.902 2.77014C10.9408 2.75425 10.9825 2.74609 11.0245 2.74611H11.7368C11.7788 2.74609 11.8205 2.75425 11.8593 2.77014C11.8982 2.78602 11.9335 2.80932 11.9633 2.83869C11.993 2.86807 12.0166 2.90294 12.0327 2.94132C12.0488 2.97971 12.057 3.02084 12.057 3.06238L12.0572 3.76574Z" />
</svg>
