<svg width="174" height="139" viewBox="0 0 174 139" fill="none" xmlns="http://www.w3.org/2000/svg">
<g filter="url(#filter0_d_1_1622)">
<path d="M86.638 130.256C132.278 130.256 169.276 107.765 169.276 80.0206C169.276 52.2763 132.278 29.7852 86.638 29.7852C40.9983 29.7852 4 52.2763 4 80.0206C4 107.765 40.9983 130.256 86.638 130.256Z" fill="url(#paint0_linear_1_1622)"/>
<g filter="url(#filter1_f_1_1622)">
<path d="M88.7148 105.838C128.203 105.838 160.215 88.8252 160.215 67.8384C160.215 46.8516 128.203 29.8384 88.7148 29.8384C49.2265 29.8384 17.2148 46.8516 17.2148 67.8384C17.2148 88.8252 49.2265 105.838 88.7148 105.838Z" fill="#347EF3"/>
</g>
<path d="M88.61 101.866C124.155 101.866 152.969 86.5276 152.969 67.6062C152.969 48.6848 124.155 33.3459 88.61 33.3459C53.0652 33.3459 24.2505 48.6848 24.2505 67.6062C24.2505 86.5276 53.0652 101.866 88.61 101.866Z" fill="url(#paint1_linear_1_1622)"/>
<path d="M88.61 98.0169C124.155 98.0169 152.969 82.6781 152.969 63.7567C152.969 44.8353 124.155 29.4965 88.61 29.4965C53.0652 29.4965 24.2505 44.8353 24.2505 63.7567C24.2505 82.6781 53.0652 98.0169 88.61 98.0169Z" fill="#B8CDF9"/>
<path d="M86.6379 113.174C49.1189 113.174 17.0835 97.7282 4.57715 76.075C9.29107 100.423 44.2126 119.333 86.6379 119.333C129.063 119.333 164.033 100.423 168.699 76.075C156.192 97.7282 124.205 113.174 86.6379 113.174Z" fill="url(#paint2_linear_1_1622)"/>
<g filter="url(#filter2_f_1_1622)">
<ellipse cx="78.5536" cy="76.5587" rx="34.5" ry="4.51023" transform="rotate(29.1017 78.5536 76.5587)" fill="#0663EF"/>
</g>
<path d="M45.1263 11.0672C45.4149 11.0191 45.7516 10.9229 46.0402 10.9229C46.1845 10.9229 46.3289 10.8748 46.4732 10.8748C46.9542 10.8266 47.3871 10.8266 47.9162 10.8266C48.0124 10.8266 48.1086 10.8266 48.1567 10.8266C48.5896 10.8266 49.0706 10.8748 49.5516 10.9229C49.5997 10.9229 49.6478 10.9229 49.744 10.9229C50.2732 10.971 50.8023 11.0672 51.3314 11.2116C51.4276 11.2116 51.4757 11.2597 51.5719 11.2597C52.101 11.4041 52.6301 11.5484 53.2073 11.7409C53.3035 11.789 53.3516 11.789 53.4478 11.8371C54.0251 12.0296 54.6504 12.2702 55.2757 12.5108L65.1845 6.73659C64.9921 6.64035 64.7997 6.59223 64.6073 6.49599C64.2706 6.35164 63.982 6.2554 63.6453 6.15917C63.5491 6.11105 63.4529 6.11105 63.3567 6.06293C63.2605 6.01481 63.2124 6.01481 63.1162 5.96669C62.9719 5.91857 62.8276 5.87046 62.6833 5.82234C62.3466 5.7261 62.058 5.62987 61.7213 5.58175C61.6251 5.58175 61.577 5.53363 61.4807 5.53363C61.3845 5.53363 61.3364 5.48551 61.2402 5.48551C61.0959 5.43739 60.9035 5.38927 60.7592 5.38927C60.4225 5.34115 60.0858 5.29304 59.7972 5.24492C59.7491 5.24492 59.7491 5.24492 59.701 5.24492C59.6529 5.24492 59.6048 5.24492 59.5086 5.24492C59.2681 5.1968 59.0276 5.1968 58.7871 5.14868C58.5466 5.14868 58.3542 5.14868 58.1137 5.14868C58.0175 5.14868 57.9213 5.14868 57.8732 5.14868C57.8251 5.14868 57.777 5.14868 57.7288 5.14868C57.344 5.14868 56.9592 5.14868 56.5744 5.1968C56.5263 5.1968 56.4782 5.1968 56.4301 5.1968C56.2858 5.1968 56.1415 5.24492 55.9972 5.24492C55.7567 5.29304 55.5162 5.29304 55.3238 5.34116C55.2276 5.34116 55.1795 5.38927 55.0833 5.38927C54.8428 5.43739 54.5542 5.53363 54.3137 5.58175C54.1694 5.62987 53.977 5.67798 53.8327 5.7261C53.7846 5.7261 53.7364 5.77422 53.6402 5.82234C53.1111 6.01481 52.5339 6.2554 52.0529 6.54411L42.144 12.3183C42.6251 12.0296 43.2023 11.789 43.7314 11.5965C43.9238 11.5003 44.1643 11.4522 44.3567 11.4041C44.5972 11.2116 44.8377 11.1153 45.1263 11.0672Z" fill="url(#paint3_linear_1_1622)"/>
<path d="M131.228 72.8029C131.228 72.5142 131.228 72.2736 131.18 71.9849C131.18 71.8887 131.18 71.7443 131.132 71.6481C131.132 71.6 131.132 71.5518 131.132 71.5037C131.132 71.4075 131.132 71.3113 131.084 71.215C131.035 70.9263 131.035 70.6376 130.987 70.397C130.939 70.1083 130.891 69.8677 130.891 69.579C130.891 69.579 130.891 69.579 130.891 69.5309C130.843 69.2422 130.795 68.9535 130.747 68.6648C130.699 68.376 130.651 68.0392 130.554 67.7505C130.554 67.7024 130.506 67.6062 130.506 67.558C130.506 67.5099 130.458 67.4618 130.458 67.3656C130.41 67.1731 130.362 66.9806 130.314 66.8363C130.218 66.4994 130.17 66.2107 130.073 65.8739C130.025 65.7295 129.977 65.5852 129.929 65.4408C129.929 65.3927 129.881 65.2965 129.881 65.2484C129.833 65.1521 129.833 65.0559 129.785 64.9115C129.689 64.5747 129.592 64.286 129.496 63.9973C129.4 63.7567 129.352 63.5161 129.256 63.2755C129.256 63.2274 129.208 63.1793 129.208 63.1793C129.208 63.1311 129.208 63.1311 129.16 63.083C129.063 62.7943 128.919 62.5056 128.823 62.1688C128.727 61.8801 128.582 61.5914 128.486 61.3027C128.486 61.2545 128.438 61.2064 128.438 61.1583C128.438 61.1102 128.39 61.0621 128.39 61.0139C128.294 60.8215 128.198 60.629 128.149 60.4365C128.005 60.1478 127.861 59.811 127.716 59.5223C127.668 59.3779 127.572 59.2336 127.524 59.1373C127.476 59.0892 127.476 58.993 127.428 58.9449C127.38 58.8486 127.332 58.7524 127.284 58.608C127.091 58.2231 126.899 57.8381 126.706 57.4532C126.658 57.357 126.61 57.2607 126.562 57.1645C126.466 56.972 126.322 56.7314 126.225 56.5389C126.081 56.2984 125.937 56.0578 125.841 55.8172C125.744 55.6728 125.696 55.5766 125.6 55.4803C125.311 54.9992 125.023 54.518 124.686 54.0368C124.59 53.8443 124.446 53.6519 124.349 53.5075C124.301 53.4113 124.253 53.3631 124.157 53.2669C124.013 53.0744 123.868 52.882 123.724 52.6414C123.58 52.4008 123.387 52.1602 123.243 51.9196C123.099 51.7271 122.954 51.5346 122.81 51.3422C122.762 51.2459 122.666 51.1497 122.618 51.1016C122.57 51.0535 122.522 50.9572 122.473 50.9091C122.233 50.6204 122.041 50.3317 121.8 50.043C121.656 49.8505 121.511 49.7061 121.367 49.5618C121.319 49.5137 121.271 49.4656 121.223 49.4174C121.175 49.3693 121.127 49.3212 121.079 49.2731C120.838 49.0325 120.598 48.7438 120.405 48.5032C120.213 48.3107 120.02 48.1182 119.828 47.9258C119.78 47.8777 119.78 47.8777 119.732 47.8295L119.684 47.7814C119.443 47.5408 119.203 47.3002 118.962 47.0596C118.722 46.8672 118.529 46.6266 118.289 46.4341L118.241 46.386C118.241 46.386 118.241 46.386 118.192 46.3379C117.952 46.0973 117.663 45.9048 117.423 45.6642C117.182 45.4717 116.942 45.2311 116.653 45.0387C116.653 45.0387 116.653 45.0387 116.605 44.9906C116.605 44.9906 116.557 44.9906 116.557 44.9424C116.316 44.75 116.124 44.6056 115.884 44.4613C115.643 44.2688 115.403 44.1244 115.162 43.932C115.066 43.8838 115.018 43.8357 114.922 43.7876L105.013 49.5618C105.542 49.9467 106.119 50.3317 106.648 50.7166C106.648 50.7166 106.696 50.7166 106.696 50.7647C107.225 51.1978 107.754 51.6309 108.284 52.1121L108.332 52.1602C108.813 52.6414 109.342 53.0744 109.823 53.6037C109.871 53.6518 109.871 53.6518 109.919 53.7C110.4 54.1811 110.833 54.6623 111.314 55.1916C111.362 55.2398 111.41 55.2879 111.458 55.336C111.891 55.8172 112.324 56.3465 112.709 56.8758C112.757 56.972 112.853 57.0682 112.901 57.1164C113.238 57.5494 113.527 57.9825 113.815 58.4156C113.96 58.608 114.104 58.8005 114.248 59.0411C114.441 59.2817 114.585 59.5704 114.777 59.811C115.066 60.2922 115.403 60.7734 115.691 61.2545C115.884 61.5914 116.124 61.9763 116.316 62.3613C116.413 62.5537 116.557 62.7943 116.653 62.9868C116.942 63.5642 117.279 64.1416 117.567 64.719C117.615 64.7672 117.615 64.8634 117.663 64.9115C117.952 65.5371 118.241 66.1626 118.529 66.8363C118.529 66.8844 118.577 66.9325 118.577 66.9806C118.866 67.6543 119.106 68.3279 119.347 69.0016C119.347 69.0497 119.395 69.0978 119.395 69.0978C119.635 69.7715 119.828 70.397 120.02 71.0707C120.02 71.1188 120.068 71.215 120.068 71.2631C120.261 71.8887 120.405 72.5623 120.549 73.1879C120.549 73.236 120.598 73.2841 120.598 73.3803C120.742 74.054 120.886 74.7277 120.982 75.4013C120.982 75.4013 120.982 75.4013 120.982 75.4494C121.079 76.1231 121.175 76.7486 121.223 77.4223C121.223 77.4704 121.223 77.5185 121.223 77.5666C121.271 78.2403 121.319 78.8658 121.319 79.4914C121.319 80.165 121.271 80.8387 121.223 81.4642C121.223 81.5123 121.223 81.5605 121.223 81.6086C121.175 82.186 121.079 82.7634 120.982 83.2927C120.982 83.3408 120.934 83.4371 120.934 83.4852C120.838 84.0145 120.694 84.4957 120.549 84.9768C120.501 85.0731 120.501 85.1212 120.453 85.2174C120.309 85.6505 120.165 86.0354 119.972 86.4204C119.924 86.5166 119.924 86.5648 119.876 86.661C119.684 87.0941 119.443 87.479 119.203 87.8639C119.203 87.9121 119.154 87.9121 119.154 87.9602C118.914 88.3451 118.625 88.682 118.385 89.0188C118.289 89.115 118.192 89.2113 118.144 89.3075C117.952 89.5481 117.711 89.7406 117.471 89.9811C117.375 90.0774 117.279 90.1255 117.182 90.2217C116.846 90.4623 116.509 90.7029 116.172 90.9435L126.081 85.1693C126.418 84.9768 126.754 84.7363 127.091 84.4475C127.187 84.3513 127.284 84.3032 127.38 84.207C127.62 84.0145 127.861 83.7739 128.053 83.5333C128.149 83.4371 128.246 83.3408 128.294 83.2446C128.582 82.9078 128.823 82.5709 129.063 82.186C129.063 82.1379 129.111 82.1379 129.111 82.0898C129.352 81.7529 129.544 81.368 129.737 80.983C129.737 80.9349 129.785 80.9349 129.785 80.8868C129.833 80.7906 129.833 80.7424 129.881 80.6462C129.977 80.4056 130.073 80.2131 130.17 79.9725C130.218 79.7801 130.266 79.6357 130.362 79.4432C130.41 79.347 130.41 79.2989 130.458 79.2027C130.458 79.1545 130.506 79.1064 130.506 79.0102C130.603 78.7215 130.699 78.3846 130.747 78.0959C130.795 77.9516 130.795 77.8072 130.843 77.6629C130.843 77.6148 130.891 77.5185 130.891 77.4704C130.891 77.3742 130.939 77.2779 130.939 77.2298C130.987 76.9411 131.035 76.6524 131.084 76.3637C131.084 76.1712 131.132 75.9787 131.132 75.7863C131.132 75.7381 131.132 75.69 131.132 75.6419C131.132 75.5938 131.132 75.5457 131.132 75.4975C131.132 75.2088 131.18 74.9201 131.18 74.6314C131.18 74.3427 131.18 74.054 131.18 73.7172V73.6691C131.228 73.3322 131.228 73.0435 131.228 72.8029Z" fill="url(#paint4_linear_1_1622)"/>
<path d="M83.4632 12.8476C83.5113 12.8957 83.5594 12.9438 83.6075 12.9919C84.329 13.5694 85.0024 14.1468 85.6758 14.7242C85.772 14.7723 85.8201 14.8685 85.9163 14.9167C86.5898 15.4941 87.2151 16.1196 87.8885 16.7452C87.9847 16.8414 88.0809 16.9376 88.1771 17.0339C88.8024 17.6594 89.4277 18.3331 90.053 19.0067C90.1492 19.103 90.2454 19.1992 90.2935 19.2954C90.8708 19.9691 91.4961 20.6427 92.0733 21.3645C92.1695 21.4608 92.2657 21.6051 92.3619 21.7013C92.9391 22.4231 93.4682 23.0968 93.9973 23.8667C94.2379 24.1554 94.4303 24.4922 94.6227 24.7809C94.9594 25.2621 95.2961 25.7433 95.6328 26.2726C96.2581 27.2349 96.8834 28.1492 97.4606 29.1597C97.5087 29.2078 97.5568 29.304 97.6049 29.3522C97.653 29.4484 97.7011 29.4965 97.7492 29.5927C98.1822 30.3626 98.6632 31.1806 99.048 31.9505C99.1442 32.0949 99.1923 32.2392 99.2885 32.3836C99.7214 33.2016 100.106 34.0196 100.491 34.8376C100.539 34.9339 100.587 35.0301 100.587 35.0782C100.972 35.9444 101.357 36.8105 101.694 37.6285C101.742 37.7247 101.79 37.821 101.79 37.9172C102.126 38.7833 102.463 39.6495 102.752 40.5156C102.8 40.6118 102.8 40.7081 102.848 40.8043C103.137 41.6704 103.425 42.5366 103.666 43.4508C103.714 43.547 103.714 43.6433 103.762 43.6914C104.002 44.6056 104.243 45.4718 104.435 46.386C104.435 46.4341 104.483 46.5304 104.483 46.5785C104.676 47.5409 104.868 48.4551 105.013 49.4175L114.921 43.6433C114.873 43.2102 114.777 42.7772 114.681 42.3922C114.585 41.911 114.488 41.478 114.392 40.9968C114.392 40.9487 114.344 40.9005 114.344 40.8524C114.344 40.8043 114.296 40.7081 114.296 40.6599C114.2 40.3231 114.152 39.9863 114.056 39.6495C113.959 39.1683 113.815 38.6871 113.671 38.2059C113.671 38.1097 113.623 38.0616 113.623 37.9653C113.575 37.8691 113.575 37.7729 113.526 37.7247C113.43 37.3879 113.334 37.0992 113.238 36.7624C113.094 36.2812 112.949 35.8481 112.805 35.3669C112.757 35.2707 112.757 35.1745 112.709 35.0782C112.661 34.982 112.661 34.8858 112.613 34.7895C112.516 34.5489 112.42 34.2602 112.324 34.0196C112.18 33.5866 111.987 33.1535 111.843 32.7204C111.795 32.5761 111.699 32.3836 111.651 32.2393C111.602 32.143 111.554 32.0468 111.554 31.9505C111.506 31.7581 111.41 31.6137 111.362 31.4212C111.169 30.9882 111.025 30.5551 110.833 30.122C110.737 29.8815 110.592 29.5927 110.496 29.3522C110.448 29.2559 110.4 29.1597 110.4 29.1116C110.352 29.0153 110.304 28.9191 110.256 28.8229C110.063 28.3898 109.823 27.9567 109.63 27.4755C109.486 27.1868 109.342 26.8981 109.197 26.6094C109.101 26.4651 109.053 26.3207 108.957 26.1763C108.909 26.0801 108.861 25.9358 108.764 25.8395C108.38 25.1659 108.043 24.4922 107.61 23.8186C107.562 23.7223 107.514 23.6261 107.466 23.578C107.466 23.578 107.466 23.578 107.466 23.5298C107.418 23.4817 107.369 23.4336 107.369 23.3374C106.792 22.375 106.167 21.4126 105.542 20.4503C105.494 20.354 105.397 20.2578 105.349 20.1134C105.109 19.7285 104.82 19.3435 104.532 18.9586C104.339 18.6699 104.099 18.3331 103.906 18.0444C103.858 17.9481 103.81 17.9 103.762 17.8038C103.377 17.2745 102.992 16.7933 102.607 16.264C102.511 16.1196 102.415 16.0234 102.271 15.879C102.175 15.7828 102.078 15.6384 101.982 15.5422C101.838 15.3497 101.694 15.1573 101.549 14.9648C101.213 14.5798 100.876 14.1468 100.539 13.7618C100.443 13.6656 100.347 13.5694 100.251 13.425C100.154 13.3288 100.058 13.2325 100.01 13.1363C99.8176 12.9438 99.6733 12.7513 99.4809 12.5589C99.1442 12.1739 98.7594 11.789 98.3746 11.404C98.2784 11.3078 98.1822 11.2116 98.134 11.1634C98.0378 11.0672 97.9417 10.971 97.8454 10.8747C97.653 10.6823 97.4606 10.4898 97.2201 10.2973C96.8353 9.91236 96.4505 9.57554 96.0657 9.19059C96.0176 9.14247 95.9214 9.09435 95.8733 9.04624C95.7771 8.99812 95.729 8.90188 95.6328 8.85376C95.3923 8.61317 95.1037 8.37258 94.8632 8.18011C94.4784 7.84328 94.0454 7.50645 93.6606 7.21774C93.6125 7.16962 93.6125 7.16962 93.5644 7.12151C93.5163 7.07339 93.4682 7.02527 93.4201 6.97715C93.1315 6.73656 92.7948 6.49597 92.5062 6.25538C92.1214 5.96667 91.7366 5.67796 91.3518 5.43737C91.3037 5.43737 91.3037 5.38925 91.2556 5.38925C91.2075 5.34113 91.1594 5.34113 91.1113 5.29301C90.8227 5.10054 90.4859 4.90806 90.1973 4.66747C89.8125 4.42688 89.4277 4.18629 89.0429 3.9457C88.9467 3.89758 88.8505 3.84946 88.7543 3.80134C88.4657 3.60887 88.1771 3.46452 87.8885 3.32016C87.5037 3.12769 87.1189 2.93521 86.7822 2.74274C86.5898 2.6465 86.3492 2.55027 86.1568 2.45403C86.1087 2.40591 86.0125 2.40591 85.9644 2.35779C85.8682 2.30968 85.772 2.26156 85.6758 2.21344C85.291 2.06909 84.9543 1.87661 84.5695 1.73226C84.1847 1.5879 83.848 1.44355 83.4632 1.29919C83.4151 1.29919 83.4151 1.29919 83.367 1.25107C83.3189 1.25107 83.3189 1.25108 83.2708 1.20296C82.9822 1.10672 82.6935 1.01048 82.4049 0.914246C82.0201 0.81801 81.6834 0.721774 81.2986 0.625537C81.1543 0.577419 81.0581 0.577419 80.9138 0.5293C80.8176 0.5293 80.7695 0.481183 80.6733 0.481183C80.529 0.433065 80.3366 0.384946 80.1923 0.384946C79.8075 0.288709 79.4227 0.24059 79.0378 0.192472C78.8454 0.144354 78.653 0.144354 78.5087 0.144354C78.4125 0.144354 78.3163 0.144353 78.2201 0.0962351C78.1239 0.0962351 77.9796 0.0481175 77.8834 0.0481175C77.4505 -7.34944e-07 77.0657 0 76.6328 0C76.4885 0 76.3442 0 76.1999 0C76.0556 0 75.9594 0 75.8151 0C75.6227 0 75.4784 -7.34944e-07 75.2859 0.0481175C74.8049 0.0962358 74.3239 0.144355 73.8429 0.240591H73.7948C73.1695 0.384946 72.5923 0.529301 72.0151 0.721774C71.967 0.721774 71.967 0.769892 71.9189 0.769892C71.2454 1.01048 70.572 1.34731 69.8986 1.68414L59.9897 7.45833C60.6151 7.07339 61.2885 6.78468 62.01 6.54409C62.6353 6.30349 63.2606 6.15914 63.9341 6.01479H63.9822C64.6075 5.87043 65.2809 5.82231 65.9543 5.77419C66.0986 5.77419 66.1948 5.77419 66.3391 5.77419C67.0125 5.77419 67.686 5.77419 68.3594 5.82231C68.4556 5.82231 68.5518 5.82231 68.648 5.87043C69.3695 5.96667 70.091 6.0629 70.8125 6.20726C70.9087 6.20726 70.9568 6.25538 71.053 6.25538C71.8227 6.44785 72.6404 6.64032 73.41 6.92903C73.4581 6.92903 73.5062 6.92903 73.5062 6.97715C74.3239 7.26586 75.1897 7.60269 76.0556 7.98763C76.1037 8.03575 76.1999 8.03575 76.248 8.08387C77.1138 8.46882 77.9796 8.95 78.8935 9.43118C79.6632 9.86425 80.4809 10.3935 81.2505 10.9228C81.2986 10.971 81.3467 10.971 81.3948 11.0191C81.972 11.7409 82.7416 12.2702 83.4632 12.8476Z" fill="url(#paint5_linear_1_1622)"/>
<path d="M78.7493 9.67174C91.9291 17.2744 102.559 34.0677 105.013 49.4174C113.911 55.3841 121.367 68.7129 121.319 79.347C121.271 90.7992 113.43 95.3223 103.473 89.5481L57.2 62.8424C45.4633 56.0578 35.8911 39.457 35.8911 25.9357C35.9392 13.2325 44.1164 7.74701 55.1797 12.4626C59.5088 5.10051 68.4076 3.70508 78.7493 9.67174Z" fill="url(#paint6_linear_1_1622)" stroke="url(#paint7_linear_1_1622)" stroke-width="0.5" stroke-miterlimit="10"/>
<path d="M74.324 25.7432L88.8986 51.0534L80.3847 46.1453L80.3366 65.8257L68.0708 58.7042L68.1189 39.0238L59.605 34.1157L74.324 25.7432Z" fill="white"/>
</g>
<defs>
<filter id="filter0_d_1_1622" x="0" y="0" width="173.276" height="138.256" filterUnits="userSpaceOnUse" color-interpolation-filters="sRGB">
<feFlood flood-opacity="0" result="BackgroundImageFix"/>
<feColorMatrix in="SourceAlpha" type="matrix" values="0 0 0 0 0 0 0 0 0 0 0 0 0 0 0 0 0 0 127 0" result="hardAlpha"/>
<feOffset dy="4"/>
<feGaussianBlur stdDeviation="2"/>
<feComposite in2="hardAlpha" operator="out"/>
<feColorMatrix type="matrix" values="0 0 0 0 0.203922 0 0 0 0 0.494118 0 0 0 0 0.952941 0 0 0 0.46 0"/>
<feBlend mode="normal" in2="BackgroundImageFix" result="effect1_dropShadow_1_1622"/>
<feBlend mode="normal" in="SourceGraphic" in2="effect1_dropShadow_1_1622" result="shape"/>
</filter>
<filter id="filter1_f_1_1622" x="13.2148" y="25.8384" width="151" height="84" filterUnits="userSpaceOnUse" color-interpolation-filters="sRGB">
<feFlood flood-opacity="0" result="BackgroundImageFix"/>
<feBlend mode="normal" in="SourceGraphic" in2="BackgroundImageFix" result="shape"/>
<feGaussianBlur stdDeviation="2" result="effect1_foregroundBlur_1_1622"/>
</filter>
<filter id="filter2_f_1_1622" x="38.3281" y="49.3187" width="80.4512" height="54.4799" filterUnits="userSpaceOnUse" color-interpolation-filters="sRGB">
<feFlood flood-opacity="0" result="BackgroundImageFix"/>
<feBlend mode="normal" in="SourceGraphic" in2="BackgroundImageFix" result="shape"/>
<feGaussianBlur stdDeviation="5" result="effect1_foregroundBlur_1_1622"/>
</filter>
<linearGradient id="paint0_linear_1_1622" x1="4.01982" y1="80.0362" x2="169.279" y2="80.0362" gradientUnits="userSpaceOnUse">
<stop offset="0.0005167" stop-color="#67A2FF"/>
<stop offset="1" stop-color="#196CFB"/>
</linearGradient>
<linearGradient id="paint1_linear_1_1622" x1="24.2709" y1="67.6225" x2="152.976" y2="67.6225" gradientUnits="userSpaceOnUse">
<stop offset="0.0005167" stop-color="#67A2FF"/>
<stop offset="1" stop-color="white"/>
</linearGradient>
<linearGradient id="paint2_linear_1_1622" x1="4.5758" y1="97.6509" x2="168.723" y2="97.6509" gradientUnits="userSpaceOnUse">
<stop offset="0.0005167" stop-color="#67A2FF"/>
<stop offset="0.1787" stop-color="#C8D3FD"/>
<stop offset="0.5204" stop-color="#72A0FF"/>
<stop offset="0.6859" stop-color="#C8D3FD"/>
<stop offset="1" stop-color="#94B0FA"/>
</linearGradient>
<linearGradient id="paint3_linear_1_1622" x1="42.0918" y1="8.73008" x2="65.1131" y2="8.73008" gradientUnits="userSpaceOnUse">
<stop offset="0.0005167" stop-color="#67A2FF"/>
<stop offset="1" stop-color="#196CFB"/>
</linearGradient>
<linearGradient id="paint4_linear_1_1622" x1="104.707" y1="50.7142" x2="124.218" y2="77.533" gradientUnits="userSpaceOnUse">
<stop offset="0.0005167" stop-color="#67A2FF"/>
<stop offset="1" stop-color="#196CFB"/>
</linearGradient>
<linearGradient id="paint5_linear_1_1622" x1="76.9329" y1="6.3443" x2="102.023" y2="39.346" gradientUnits="userSpaceOnUse">
<stop offset="0.0005167" stop-color="#67A2FF"/>
<stop offset="1" stop-color="#196CFB"/>
</linearGradient>
<linearGradient id="paint6_linear_1_1622" x1="35.9157" y1="48.9838" x2="121.331" y2="48.9838" gradientUnits="userSpaceOnUse">
<stop offset="0.0005167" stop-color="#67A2FF"/>
<stop offset="1" stop-color="#196CFB"/>
</linearGradient>
<linearGradient id="paint7_linear_1_1622" x1="68.6148" y1="69.5268" x2="97.1392" y2="20.1386" gradientUnits="userSpaceOnUse">
<stop offset="0.7008" stop-color="#67A2FF" stop-opacity="0"/>
<stop offset="1" stop-color="white"/>
</linearGradient>
</defs>
</svg>
