<svg width="18" height="18" viewBox="0 0 18 18" xmlns="http://www.w3.org/2000/svg">
	<path d="M9 9C9.77876 9 10.54 8.76907 11.1876 8.33641C11.8351 7.90376 12.3398 7.2888 12.6378 6.56932C12.9358 5.84983 13.0138 5.05813 12.8618 4.29433C12.7099 3.53053 12.3349 2.82894 11.7842 2.27827C11.2336 1.7276 10.532 1.35259 9.76817 1.20066C9.00437 1.04873 8.21267 1.12671 7.49318 1.42473C6.7737 1.72275 6.15875 2.22743 5.72609 2.87494C5.29343 3.52246 5.0625 4.28374 5.0625 5.0625C5.0625 6.10679 5.47734 7.10831 6.21577 7.84673C6.95419 8.58516 7.95571 9 9 9ZM9 10.125C6.55945 10.125 1.6875 11.6325 1.6875 14.625V16.875H16.3125V14.625C16.3125 11.6325 11.4405 10.125 9 10.125Z" />
</svg>
