<svg width="14" height="16" viewBox="0 0 14 16" xmlns="http://www.w3.org/2000/svg">
	<path fill-rule="evenodd" clip-rule="evenodd" d="M13.9035 6.77094C13.9035 9.20129 12.5379 11.3263 10.5056 12.4814L11.9754 14.9288C12.2243 15.3413 11.9133 15.8574 11.4183 15.8574H2.57967C2.08467 15.8574 1.77389 15.3413 2.02279 14.9288L3.49408 12.4814C1.45906 11.3286 0.0957031 9.20305 0.0957031 6.77094C0.0957031 3.10994 3.18699 0.142578 6.99986 0.142578C10.8127 0.142578 13.904 3.10994 13.9035 6.77094ZM3.11018 6.77076C3.11018 8.91898 4.85164 10.6603 6.99986 10.6603C9.14808 10.6603 10.8896 8.91898 10.8896 6.77076C10.8896 4.62254 9.14808 2.88107 6.99986 2.88107C4.85164 2.88107 3.11018 4.62254 3.11018 6.77076ZM6.83129 3.82818C6.88719 3.82502 6.94344 3.82326 7.00004 3.82326C7.63961 3.82335 8.2618 4.03144 8.77273 4.41614C9.28367 4.80084 9.65563 5.34127 9.8325 5.9559C10.0094 6.57052 9.98155 7.226 9.75324 7.82343C9.52493 8.42086 9.10851 8.92783 8.56681 9.26785C8.02512 9.60787 7.38753 9.7625 6.75025 9.7084C6.11298 9.65429 5.51058 9.3944 5.03396 8.96793C4.55733 8.54146 4.23234 7.97155 4.108 7.34418C3.98367 6.71682 4.06674 6.06603 4.34469 5.49002C4.59454 5.73806 4.92249 5.89206 5.27293 5.92592C5.62337 5.95977 5.97473 5.8714 6.26745 5.67577C6.56016 5.48014 6.77622 5.1893 6.87898 4.85257C6.98175 4.51583 6.9649 4.15391 6.83129 3.82818Z" />
	<defs>
		<linearGradient id="paint0_linear_0_48" x1="6.9996" y1="0.142578" x2="6.9996" y2="15.8574" gradientUnits="userSpaceOnUse">
			<stop stop-color="#2918AD" />
			<stop offset="1" stop-color="#802FE8" />
		</linearGradient>
	</defs>
</svg>
