<?xml version="1.0" standalone="no"?><!DOCTYPE svg PUBLIC "-//W3C//DTD SVG 1.1//EN" "http://www.w3.org/Graphics/SVG/1.1/DTD/svg11.dtd"><svg t="1685601091182" class="icon" viewBox="0 0 1024 1024" version="1.1" xmlns="http://www.w3.org/2000/svg" p-id="5452" xmlns:xlink="http://www.w3.org/1999/xlink" width="200" height="200"><path d="M666.624 756.48l121.792 121.216c24.576 24.448 64.448 24.448 89.088 0 24.64-24.512 24.64-64.192 0-88.704l-121.152-120.512c94.144-134.08 81.344-320.448-38.784-440-134.72-134.016-353.856-134.016-488.576 0-134.656 134.08-134.656 352.192 0 486.272C347.84 833.024 532.352 846.848 666.624 756.48zM309.184 308.288c90.496-90.048 237.696-90.048 328.192 0 90.432 90.048 90.432 236.544 0 326.656-90.496 90.048-237.696 90.048-328.192 0S218.688 398.4 309.184 308.288z" p-id="5453"></path><path d="M608.128 448 576 448 512 448 351.872 448C333.76 448 320 462.336 320 480 320 497.152 334.272 512 351.872 512L512 512l64 0 32.128 0C626.24 512 640 497.664 640 480 640 462.848 625.728 448 608.128 448z" p-id="5454"></path></svg>